<?xml version="1.0" encoding="utf-8"?>
<!-- Generator: Adobe Illustrator 23.0.0, SVG Export Plug-In . SVG Version: 6.00 Build 0)  -->
<svg version="1.1" xmlns="http://www.w3.org/2000/svg" xmlns:xlink="http://www.w3.org/1999/xlink" x="0px" y="0px"
	 viewBox="0 0 434.94 227.08" style="enable-background:new 0 0 434.94 227.08;" xml:space="preserve" onload="initSVG();">
<style type="text/css">
	@import url('https://fonts.googleapis.com/css?family=Roboto');
	.lines {
	transition: opacity 0.3s ease;
	}
	.st0{fill:none;stroke:#DAD9D9;stroke-width:0.208;stroke-linejoin:round;stroke-miterlimit:10;}
	.st1{fill:#636563;}
	.st2{font-family:'Roboto';}
	.st3{font-size:4.2516px;}
	.st4{font-size:5.102px;}
	.st5{fill:none;stroke:#E8E6AA;stroke-width:0.6892;stroke-linecap:round;stroke-linejoin:round;stroke-miterlimit:10;}
	.st6{fill:#000;opacity:0}
	.st7{fill:none;stroke:#C8E3B4;stroke-width:0.6892;stroke-linecap:round;stroke-linejoin:round;stroke-miterlimit:10;}
	.st8{fill:none;stroke:#7FCCBB;stroke-width:0.6892;stroke-linecap:round;stroke-linejoin:round;stroke-miterlimit:10;}
	.st9{fill:none;stroke:#40B6C4;stroke-width:0.6892;stroke-linecap:round;stroke-linejoin:round;stroke-miterlimit:10;}
	.st10{fill:none;stroke:#1C91C0;stroke-width:0.6892;stroke-linecap:round;stroke-linejoin:round;stroke-miterlimit:10;}
	.st11{fill:none;stroke:#225FA9;stroke-width:0.6892;stroke-linecap:round;stroke-linejoin:round;stroke-miterlimit:10;}
	
		.st12{fill:none;stroke:#A02F22;stroke-width:1.4545;stroke-linecap:round;stroke-linejoin:round;stroke-miterlimit:10;stroke-dasharray:4,4;}
	.st13{fill:none;stroke:#A02F22;stroke-width:1.4545;stroke-linecap:round;stroke-linejoin:round;stroke-miterlimit:10;}
	.st14{font-size:8px;}
	.st15{fill:none;stroke:#000000;stroke-width:0.25;stroke-miterlimit:10;}
	.st16{fill:#FFFFFF;}
	.st17{fill:none;stroke:#A02F22;stroke-width:1.2467;stroke-linecap:round;stroke-linejoin:round;stroke-miterlimit:10;}
	.st18{fill:none;stroke:#FCC544;stroke-width:2.0676;stroke-linecap:round;stroke-linejoin:round;stroke-miterlimit:10;}
</style>
<g id="background">
	<g>
		<path class="st0" d="M88.03,162.04h338.12 M88.03,136.07h338.12 M88.03,110.3h338.12 M88.03,84.33h338.12"/>
	</g>
	<g>
		<line class="st0" x1="88.03" y1="187.81" x2="426.15" y2="187.81"/>
	</g>
	<g>
		<g>
			<g>
				<text transform="matrix(1.0026 0 0 1 97.2164 192.6862)"><tspan x="0" y="0" class="st1 st2 st3">J</tspan><tspan x="2.41" y="0" class="st1 st2 st3">a</tspan><tspan x="4.67" y="0" class="st1 st2 st3">nu</tspan><tspan x="9.42" y="0" class="st1 st2 st3">a</tspan><tspan x="11.68" y="0" class="st1 st2 st3">r</tspan><tspan x="13.05" y="0" class="st1 st2 st3">y</tspan></text>
			</g>
		</g>
	</g>
	<g>
		<g>
			<g>
				<text transform="matrix(1.0026 0 0 1 124.6041 192.6862)"><tspan x="0" y="0" class="st1 st2 st3">F</tspan><tspan x="2.38" y="0" class="st1 st2 st3">e</tspan><tspan x="4.5" y="0" class="st1 st2 st3">b</tspan><tspan x="6.92" y="0" class="st1 st2 st3">r</tspan><tspan x="8.29" y="0" class="st1 st2 st3">u</tspan><tspan x="10.67" y="0" class="st1 st2 st3">a</tspan><tspan x="13.21" y="0" class="st1 st2 st3">r</tspan><tspan x="14.59" y="0" class="st1 st2 st3">y</tspan></text>
			</g>
		</g>
	</g>
	<g>
		<g>
			<g>
				<text transform="matrix(1.0026 0 0 1 154.3551 192.6862)"><tspan x="0" y="0" class="st1 st2 st3">M</tspan><tspan x="3.76" y="0" class="st1 st2 st3">a</tspan><tspan x="6.02" y="0" class="st1 st2 st3">r</tspan><tspan x="7.4" y="0" class="st1 st2 st3">c</tspan><tspan x="9.8" y="0" class="st1 st2 st3">h</tspan></text>
			</g>
		</g>
	</g>
	<g>
		<g>
			<g>
				<text transform="matrix(1.0026 0 0 1 183.6559 192.6862)"><tspan x="0" y="0" class="st1 st2 st3">A</tspan><tspan x="2.86" y="0" class="st1 st2 st3">p</tspan><tspan x="5.28" y="0" class="st1 st2 st3">r</tspan><tspan x="6.65" y="0" class="st1 st2 st3">i</tspan><tspan x="7.56" y="0" class="st1 st2 st3">l</tspan></text>
			</g>
		</g>
	</g>
	<g>
		<g>
			<g>
				<text transform="matrix(1.0026 0 0 1 212.0299 192.6862)"><tspan x="0" y="0" class="st1 st2 st3">M</tspan><tspan x="3.76" y="0" class="st1 st2 st3">a</tspan><tspan x="6.02" y="0" class="st1 st2 st3">y</tspan></text>
			</g>
		</g>
	</g>
	<g>
		<g>
			<g>
				<text transform="matrix(1.0026 0 0 1 240.0797 192.6862)"><tspan x="0" y="0" class="st1 st2 st3">J</tspan><tspan x="2.41" y="0" class="st1 st2 st3">un</tspan><tspan x="7.15" y="0" class="st1 st2 st3">e</tspan></text>
			</g>
		</g>
	</g>
	<g>
		<g>
			<g>
				<text transform="matrix(1.0026 0 0 1 268.7936 192.6862)"><tspan x="0" y="0" class="st1 st2 st3">J</tspan><tspan x="2.41" y="0" class="st1 st2 st3">u</tspan><tspan x="4.78" y="0" class="st1 st2 st3">l</tspan><tspan x="5.69" y="0" class="st1 st2 st3">y</tspan></text>
			</g>
		</g>
	</g>
	<g>
		<g>
			<g>
				<text transform="matrix(1.0026 0 0 1 294.9401 192.6862)"><tspan x="0" y="0" class="st1 st2 st3">A</tspan><tspan x="2.86" y="0" class="st1 st2 st3">u</tspan><tspan x="5.24" y="0" class="st1 st2 st3">g</tspan><tspan x="7.6" y="0" class="st1 st2 st3">u</tspan><tspan x="9.98" y="0" class="st1 st2 st3">s</tspan><tspan x="11.93" y="0" class="st1 st2 st3">t</tspan></text>
			</g>
		</g>
	</g>
	<g>
		<g>
			<g>
				<text transform="matrix(1.0026 0 0 1 320.526 192.6862)"><tspan x="0" y="0" class="st1 st2 st3">S</tspan><tspan x="2.55" y="0" class="st1 st2 st3">e</tspan><tspan x="4.68" y="0" class="st1 st2 st3">p</tspan><tspan x="7.09" y="0" class="st1 st2 st3">t</tspan><tspan x="8.48" y="0" class="st1 st2 st3">e</tspan><tspan x="10.87" y="0" class="st1 st2 st3">m</tspan><tspan x="14.6" y="0" class="st1 st2 st3">b</tspan><tspan x="17.02" y="0" class="st1 st2 st3">e</tspan><tspan x="19.14" y="0" class="st1 st2 st3">r</tspan></text>
			</g>
		</g>
	</g>
	<g>
		<g>
			<g>
				<text transform="matrix(1.0026 0 0 1 350.528 192.6862)"><tspan x="0" y="0" class="st1 st2 st3">O</tspan><tspan x="2.94" y="0" class="st1 st2 st3">c</tspan><tspan x="5.07" y="0" class="st1 st2 st3">t</tspan><tspan x="6.46" y="0" class="st1 st2 st3">o</tspan><tspan x="8.9" y="0" class="st1 st2 st3">b</tspan><tspan x="11.31" y="0" class="st1 st2 st3">e</tspan><tspan x="13.71" y="0" class="st1 st2 st3">r</tspan></text>
			</g>
		</g>
	</g>
	<g>
		<g>
			<g>
				<text transform="matrix(1.0026 0 0 1 377.1842 192.6862)"><tspan x="0" y="0" class="st1 st2 st3">N</tspan><tspan x="3.12" y="0" class="st1 st2 st3">o</tspan><tspan x="5.57" y="0" class="st1 st2 st3">v</tspan><tspan x="7.41" y="0" class="st1 st2 st3">e</tspan><tspan x="9.81" y="0" class="st1 st2 st3">m</tspan><tspan x="13.54" y="0" class="st1 st2 st3">b</tspan><tspan x="15.96" y="0" class="st1 st2 st3">e</tspan><tspan x="18.09" y="0" class="st1 st2 st3">r</tspan></text>
			</g>
		</g>
	</g>
	<g>
		<g>
			<g>
				<text transform="matrix(1.0026 0 0 1 405.5006 192.6862)"><tspan x="0" y="0" class="st1 st2 st3">D</tspan><tspan x="2.72" y="0" class="st1 st2 st3">e</tspan><tspan x="5.13" y="0" class="st1 st2 st3">c</tspan><tspan x="7.26" y="0" class="st1 st2 st3">e</tspan><tspan x="9.66" y="0" class="st1 st2 st3">m</tspan><tspan x="13.11" y="0" class="st1 st2 st3">b</tspan><tspan x="15.52" y="0" class="st1 st2 st3">e</tspan><tspan x="17.93" y="0" class="st1 st2 st3">r</tspan></text>
			</g>
		</g>
	</g>
	<g>
		<g>
			<g>
				<text transform="matrix(1.0026 0 0 1 83.745 189.134)" class="st1 st2 st4">0</text>
			</g>
		</g>
	</g>
	<g>
		<g>
			<g>
				<text transform="matrix(1.0026 0 0 1 63.7143 163.2854)"><tspan x="0" y="0" class="st1 st2 st4">5</tspan><tspan x="3" y="0" class="st1 st2 st4">,</tspan><tspan x="4" y="0" class="st1 st2 st4">0</tspan><tspan x="6.66" y="0" class="st1 st2 st4">0</tspan><tspan x="9.66" y="0" class="st1 st2 st4">0</tspan><tspan x="12.32" y="0" class="st1 st2 st4">,</tspan><tspan x="13.32" y="0" class="st1 st2 st4">00</tspan><tspan x="19.31" y="0" class="st1 st2 st4">0</tspan></text>
			</g>
		</g>
	</g>
	<g>
		<g>
			<g>
				<text transform="matrix(1.0026 0 0 1 61.0751 137.4368)"><tspan x="0" y="0" class="st1 st2 st4">1</tspan><tspan x="3" y="0" class="st1 st2 st4">0</tspan><tspan x="5.66" y="0" class="st1 st2 st4">,</tspan><tspan x="6.66" y="0" class="st1 st2 st4">0</tspan><tspan x="9.66" y="0" class="st1 st2 st4">0</tspan><tspan x="12.32" y="0" class="st1 st2 st4">0</tspan><tspan x="15.32" y="0" class="st1 st2 st4">,</tspan><tspan x="16.32" y="0" class="st1 st2 st4">0</tspan><tspan x="19.31" y="0" class="st1 st2 st4">0</tspan><tspan x="21.98" y="0" class="st1 st2 st4">0</tspan></text>
			</g>
		</g>
	</g>
	<g>
		<g>
			<g>
				<text transform="matrix(1.0026 0 0 1 61.0751 111.5881)"><tspan x="0" y="0" class="st1 st2 st4">1</tspan><tspan x="3" y="0" class="st1 st2 st4">5</tspan><tspan x="5.66" y="0" class="st1 st2 st4">,</tspan><tspan x="6.66" y="0" class="st1 st2 st4">0</tspan><tspan x="9.66" y="0" class="st1 st2 st4">0</tspan><tspan x="12.32" y="0" class="st1 st2 st4">0</tspan><tspan x="15.32" y="0" class="st1 st2 st4">,</tspan><tspan x="16.32" y="0" class="st1 st2 st4">0</tspan><tspan x="19.31" y="0" class="st1 st2 st4">0</tspan><tspan x="21.98" y="0" class="st1 st2 st4">0</tspan></text>
			</g>
		</g>
	</g>
	<g>
		<g>
			<g>
				<text transform="matrix(1.0026 0 0 1 61.0751 85.7395)"><tspan x="0" y="0" class="st1 st2 st4">2</tspan><tspan x="3" y="0" class="st1 st2 st4">0</tspan><tspan x="5.66" y="0" class="st1 st2 st4">,</tspan><tspan x="6.66" y="0" class="st1 st2 st4">0</tspan><tspan x="9.66" y="0" class="st1 st2 st4">0</tspan><tspan x="12.32" y="0" class="st1 st2 st4">0</tspan><tspan x="15.32" y="0" class="st1 st2 st4">,</tspan><tspan x="16.32" y="0" class="st1 st2 st4">0</tspan><tspan x="19.31" y="0" class="st1 st2 st4">0</tspan><tspan x="21.98" y="0" class="st1 st2 st4">0</tspan></text>
			</g>
		</g>
	</g>
	<g>
		<g>
			<g>
				<text transform="matrix(1.0026 0 0 1 17.0929 67.5704)"><tspan x="0" y="0" class="st1 st2 st4">Number of new displacements</tspan><tspan x="21.41" y="6.12" class="st1 st2 st4">from disaster events </tspan></text>
			</g>
		</g>
	</g>
</g>
<g id="graph">
	<g class="lines" id="line2013">
		<g>
			<path class="st5" d="M102.1,184.38c9.39-0.54,18.79-1.07,28.18-1.63c9.39-0.56,18.79-0.49,28.18-1.72
				c9.39-1.24,18.79-3.45,28.18-5.69c9.39-2.25,18.79-3.84,28.18-7.78c9.39-3.94,18.79-11.82,28.18-15.87
				c9.39-4.05,18.79-4.46,28.18-8.42c9.39-3.96,18.79-11.15,28.18-15.35c9.39-4.21,18.79-5.66,28.18-9.88
				c9.39-4.22,18.79-8.35,28.18-15.46c9.39-7.11,18.79-22.33,28.18-27.2c9.39-4.86,18.79-1.32,28.18-1.99"/>
		</g>
		<g>
			<line class="st5" x1="112.09" y1="210.35" x2="118.76" y2="210.35"/>
		</g>
		<g>
			<g>
				<text transform="matrix(1.0026 0 0 1 120.4078 211.2295)"><tspan x="0" y="0" class="st1 st2 st4">2</tspan><tspan x="3" y="0" class="st1 st2 st4">0</tspan><tspan x="5.66" y="0" class="st1 st2 st4">1</tspan><tspan x="8.66" y="0" class="st1 st2 st4">3</tspan></text>
			</g>
			<rect x="110.74" y="204.47" class="st6" width="22.22" height="9.78"/>
		</g>
	</g>
	<g class="lines" id="line2014">
		<g>
			<path class="st7" d="M102.1,181.06c9.39-0.49,18.79-1.16,28.18-1.47c9.39-0.31,18.79,0.63,28.18-0.39
				c9.39-1.02,18.79-4.13,28.18-5.76s18.79-2.62,28.18-4.04c9.39-1.42,18.79,1.24,28.18-4.46c9.39-5.71,18.79-22.68,28.18-29.77
				c9.39-7.09,18.79-8.19,28.18-12.79c9.39-4.6,18.79-11.48,28.18-14.79c9.39-3.31,18.79-4.15,28.18-5.09
				c9.39-0.94,18.79,1.69,28.18-0.56c9.39-2.25,18.79-8.62,28.18-12.93"/>
		</g>
		<g>
			<g>
				<g>
					<line class="st7" x1="138.59" y1="210.35" x2="145.26" y2="210.35"/>
				</g>
				<g>
					<g>
						<g>
							<text transform="matrix(1.0026 0 0 1 147.9377 211.2295)"><tspan x="0" y="0" class="st1 st2 st4">2</tspan><tspan x="3" y="0" class="st1 st2 st4">0</tspan><tspan x="5.66" y="0" class="st1 st2 st4">1</tspan><tspan x="8.66" y="0" class="st1 st2 st4">4</tspan></text>
						</g>
					</g>
				</g>
			</g>
			<rect x="137.57" y="204.47" class="st6" width="22.22" height="9.78"/>
		</g>
	</g>
	<g class="lines" id="line2015">
		<g>
			<path class="st8" d="M102.1,184.55c9.39-0.22,18.79-0.37,28.18-0.65c9.39-0.28,18.79,1.72,28.18-1
				c9.39-2.73,18.79-12.29,28.18-15.36c9.39-3.07,18.79-2.1,28.18-3.09c9.39-0.99,18.79,1.86,28.18-2.84
				c9.39-4.7,18.79-19.26,28.18-25.34c9.39-6.09,18.79-7.73,28.18-11.17c9.39-3.44,18.79-6.13,28.18-9.45
				c9.39-3.33,18.79-6.97,28.18-10.5c9.39-3.52,18.79-7.89,28.18-10.65c9.39-2.76,18.79-3.94,28.18-5.91"/>
		</g>
		<g>
			<g>
				<g>
					<line class="st8" x1="166.09" y1="210.35" x2="172.75" y2="210.35"/>
				</g>
				<g>
					<g>
						<g>
							<text transform="matrix(1.0026 0 0 1 174.4676 211.2295)"><tspan x="0" y="0" class="st1 st2 st4">2</tspan><tspan x="3" y="0" class="st1 st2 st4">0</tspan><tspan x="5.66" y="0" class="st1 st2 st4">1</tspan><tspan x="8.66" y="0" class="st1 st2 st4">5</tspan></text>
						</g>
					</g>
				</g>
			</g>
			<rect x="165.24" y="204.47" class="st6" width="22.22" height="9.78"/>
		</g>
	</g>
	<g class="lines" id="line2016">
		<g>
			<polyline class="st9" points="102.1,181.47 130.22,180.85 158.55,178.56 186.68,175.03 214.8,167.76 242.93,148.85 
				271.26,127.65 299.38,118.72 327.51,99.6 355.63,79.03 383.96,77.58 411.09,62.62 			"/>
		</g>
		<g>
			<g>
				<g>
					<line class="st9" x1="193.08" y1="209.75" x2="199.75" y2="209.75"/>
				</g>
				<g>
					<g>
						<g>
							<text transform="matrix(1.0026 0 0 1 201.4994 211.2296)"><tspan x="0" y="0" class="st1 st2 st4">2</tspan><tspan x="3" y="0" class="st1 st2 st4">0</tspan><tspan x="5.66" y="0" class="st1 st2 st4">1</tspan><tspan x="8.66" y="0" class="st1 st2 st4">6</tspan></text>
						</g>
					</g>
				</g>
			</g>
			<rect x="191.41" y="204.47" class="st6" width="22.22" height="9.78"/>
		</g>
	</g>
	<g class="lines" id="line2017">
		<g>
			<path class="st10" d="M102.1,177.52c9.39-0.92,18.79-1.91,28.18-2.77c9.39-0.86,18.79-1.86,28.18-2.39
				c9.39-0.53,18.79,0.34,28.18-0.82c9.39-1.16,18.79-1.62,28.18-6.15c9.39-4.53,18.79-16.04,28.18-21.03
				c9.39-4.99,18.79-3.89,28.18-8.92c9.39-5.02,18.79-16.77,28.18-21.23c9.39-4.46,18.79-3.89,28.18-5.53
				c9.39-1.64,18.79-3.2,28.18-4.3s18.79-0.03,28.18-2.31c9.39-2.29,18.79-7.61,28.18-11.41"/>
		</g>
		<g>
			<g>
				<g>
					<line class="st10" x1="220.08" y1="210.35" x2="226.74" y2="210.35"/>
				</g>
				<g>
					<g>
						<g>
							<text transform="matrix(1.0026 0 0 1 228.5307 211.2295)"><tspan x="0" y="0" class="st1 st2 st4">2</tspan><tspan x="3" y="0" class="st1 st2 st4">0</tspan><tspan x="5.66" y="0" class="st1 st2 st4">1</tspan><tspan x="8.66" y="0" class="st1 st2 st4">7</tspan></text>
						</g>
					</g>
				</g>
			</g>
			<rect x="219.24" y="204.47" class="st6" width="22.22" height="9.78"/>
		</g>
	</g>
	<g class="lines" id="line2018">
		<g>
			<path class="st11" d="M102.1,181.26c9.39-0.48,18.79-1.14,28.18-1.45c9.39-0.32,18.79,0.46,28.18-0.44
				c9.39-0.91,18.79-1.89,28.18-4.99c9.39-3.1,18.79-10.64,28.18-13.61c9.39-2.97,18.79-0.94,28.18-4.2
				c9.39-3.25,18.79-11.05,28.18-15.33c9.39-4.28,18.79-5.46,28.18-10.34c9.39-4.88,18.79-14.53,28.18-18.93
				c9.39-4.4,18.79-5.56,28.18-7.46c9.39-1.89,18.79-2.99,28.18-3.91c9.39-0.92,18.79-1.08,28.18-1.62"/>
		</g>
		<g>
			<g>
				<g>
					<line class="st11" x1="247.68" y1="209.75" x2="254.35" y2="209.75"/>
				</g>
				<g>
					<g>
						<g>
							<text transform="matrix(1.0026 0 0 1 254.9564 211.2295)"><tspan x="0" y="0" class="st1 st2 st4">2</tspan><tspan x="3" y="0" class="st1 st2 st4">0</tspan><tspan x="5.66" y="0" class="st1 st2 st4">1</tspan><tspan x="8.66" y="0" class="st1 st2 st4">8</tspan></text>
						</g>
					</g>
				</g>
			</g>
			<rect x="245.91" y="204.47" class="st6" width="22.22" height="9.78"/>
		</g>
	</g>
	<g class="lines" id="line2019">
		<g>
			<g>
				<g>
					<line class="st12" x1="243.03" y1="144.59" x2="271.15" y2="126.51"/>
				</g>
				<g>
					<line class="st12" x1="271.15" y1="126.51" x2="299.28" y2="113.21"/>
				</g>
				<g>
					<line class="st12" x1="299.28" y1="113.21" x2="327.61" y2="100.33"/>
				</g>
				<g>
					<line class="st12" x1="327.61" y1="100.33" x2="355.73" y2="89.73"/>
				</g>
				<g>
					<line class="st12" x1="355.73" y1="89.73" x2="383.86" y2="82.04"/>
				</g>
				<g>
					<line class="st12" x1="383.86" y1="82.04" x2="411.98" y2="73.94"/>
				</g>
				<g>
					<polyline class="st13" points="102.2,182.82 130.32,182.61 158.45,174.72 186.57,173.68 214.91,154.35 243.03,144.59 					"/>
				</g>
			</g>
			<text transform="matrix(1.0026 0 0 1 343.9024 38.3402)"><tspan x="0" y="0" class="st2 st14">Predicted number </tspan><tspan x="-12.93" y="9.6" class="st2 st14">of new displacements</tspan><tspan x="13.45" y="19.2" class="st2 st14">from disasters</tspan></text>
			<g>
				<line class="st15" x1="411.34" y1="33.7" x2="411.34" y2="73.7"/>
				<g>
					<path class="st16" d="M409.66,73.6c0,0.93,0.75,1.68,1.68,1.68c0.93,0,1.68-0.75,1.68-1.68c0-0.93-0.75-1.68-1.68-1.68
						C410.41,71.92,409.66,72.67,409.66,73.6z"/>
					<path d="M409.43,73.6c0-1.05,0.86-1.91,1.91-1.91c1.05,0,1.91,0.86,1.91,1.91c0,1.05-0.86,1.91-1.91,1.91
						C410.29,75.51,409.43,74.65,409.43,73.6C409.43,72.55,409.43,74.65,409.43,73.6z M412.8,73.6c0-0.8-0.65-1.46-1.46-1.46
						c-0.8,0-1.46,0.65-1.46,1.46c0,0.8,0.65,1.46,1.46,1.46C412.14,75.06,412.8,74.41,412.8,73.6
						C412.8,72.8,412.8,74.41,412.8,73.6z"/>
				</g>
			</g>
		</g>
		<g>
			<g>
				<g>
					<line class="st17" x1="274.63" y1="210.35" x2="281.3" y2="210.35"/>
				</g>
				<g>
					<g>
						<g>
							<text transform="matrix(1.0026 0 0 1 282.0299 211.2295)"><tspan x="0" y="0" class="st1 st2 st4">2</tspan><tspan x="3" y="0" class="st1 st2 st4">0</tspan><tspan x="5.66" y="0" class="st1 st2 st4">1</tspan><tspan x="8.66" y="0" class="st1 st2 st4">9</tspan></text>
						</g>
					</g>
				</g>
			</g>
			<rect x="272.74" y="204.47" class="st6" width="22.22" height="9.78"/>
		</g>
	</g>
	<g class="lines" id="lineaverage">
		<g>
			<polyline class="st18" points="102.2,181.78 130.32,180.33 158.45,178.87 186.57,172.85 214.91,165.78 243.03,154.77 
				271.15,136.48 299.28,123.19 327.61,110.3 355.73,99.71 383.86,92.02 411.98,83.91 			"/>
		</g>
		<g>
			<g>
				<line class="st18" x1="302.36" y1="209.75" x2="309.03" y2="209.75"/>
			</g>
			<g>
				<g>
					<g>
						<g>
							<g>
								<g>
									<text transform="matrix(1.0026 0 0 1 313.9192 208.1689)"><tspan x="0" y="0" class="st1 st2 st4">Average number of new displacements</tspan><tspan x="0" y="6.12" class="st1 st2 st4">reported between 2013 and 2018</tspan></text>
								</g>
							</g>
						</g>
					</g>
				</g>
			</g>
			<rect x="300.41" y="202.7" class="st6" width="104.11" height="14"/>
		</g>
	</g>
</g>
	
	<script type='application/ecmascript'>
  <![CDATA[
      
      
      if (!Array.from) {
  Array.from = (function () {
    var toStr = Object.prototype.toString;
    var isCallable = function (fn) {
      return typeof fn === 'function' || toStr.call(fn) === '[object Function]';
    };
    var toInteger = function (value) {
      var number = Number(value);
      if (isNaN(number)) { return 0; }
      if (number === 0 || !isFinite(number)) { return number; }
      return (number > 0 ? 1 : -1) * Math.floor(Math.abs(number));
    };
    var maxSafeInteger = Math.pow(2, 53) - 1;
    var toLength = function (value) {
      var len = toInteger(value);
      return Math.min(Math.max(len, 0), maxSafeInteger);
    };

    // The length property of the from method is 1.
    return function from(arrayLike/*, mapFn, thisArg */) {
      // 1. Let C be the this value.
      var C = this;

      // 2. Let items be ToObject(arrayLike).
      var items = Object(arrayLike);

      // 3. ReturnIfAbrupt(items).
      if (arrayLike == null) {
        throw new TypeError("Array.from requires an array-like object - not null or undefined");
      }

      // 4. If mapfn is undefined, then let mapping be false.
      var mapFn = arguments.length > 1 ? arguments[1] : void undefined;
      var T;
      if (typeof mapFn !== 'undefined') {
        // 5. else
        // 5. a If IsCallable(mapfn) is false, throw a TypeError exception.
        if (!isCallable(mapFn)) {
          throw new TypeError('Array.from: when provided, the second argument must be a function');
        }

        // 5. b. If thisArg was supplied, let T be thisArg; else let T be undefined.
        if (arguments.length > 2) {
          T = arguments[2];
        }
      }

      // 10. Let lenValue be Get(items, "length").
      // 11. Let len be ToLength(lenValue).
      var len = toLength(items.length);

      // 13. If IsConstructor(C) is true, then
      // 13. a. Let A be the result of calling the [[Construct]] internal method of C with an argument list containing the single item len.
      // 14. a. Else, Let A be ArrayCreate(len).
      var A = isCallable(C) ? Object(new C(len)) : new Array(len);

      // 16. Let k be 0.
      var k = 0;
      // 17. Repeat, while k < len… (also steps a - h)
      var kValue;
      while (k < len) {
        kValue = items[k];
        if (mapFn) {
          A[k] = typeof T === 'undefined' ? mapFn(kValue, k) : mapFn.call(T, kValue, k);
        } else {
          A[k] = kValue;
        }
        k += 1;
      }
      // 18. Let putStatus be Put(A, "length", len, true).
      A.length = len;
      // 20. Return A.
      return A;
    };
  }());
}



    var lines = Array.from(document.getElementsByClassName("lines"));
    
    function highlight(s) {
        lines.forEach(function(d) {
            if (d == s) {
                d.style.opacity=1;
            } else {
                d.style.opacity=0.1;
            }
        })
    }


	
    function reset() {
        lines.forEach(function(d) {
            d.style.opacity=1;
           
        });

    }
  	function initSVG() {
  	    lines.forEach(function(d){
  	        d.addEventListener("mouseover", function() {
            highlight(d);
  	        });
  	        d.addEventListener("mouseout", function() {
            reset();
  	        });
  	    });

  	    
 		
 	};
 	
 	
 	
 	


  ]]>
</script>
</svg>
