<?xml version="1.0" encoding="UTF-8"?>
<svg width="114px" height="101px" viewBox="0 0 114 101" version="1.1" xmlns="http://www.w3.org/2000/svg" xmlns:xlink="http://www.w3.org/1999/xlink">
    <!-- Generator: Sketch 49.3 (51167) - http://www.bohemiancoding.com/sketch -->
    <title>bullhorn</title>
    <desc>Created with Sketch.</desc>
    <defs></defs>
    <g id="Symbols" stroke="none" stroke-width="1" fill="none" fill-rule="evenodd" fill-opacity="0.5">
        <g id="media-centre-card" transform="translate(-71.000000, -194.000000)" fill="#9B9B9B">
            <g id="blog-1">
                <g id="bullhorn" transform="translate(71.000000, 194.000000)">
                    <path d="M94.6878182,71.7763252 C83.9153035,62.9034848 70.0230224,53.4423964 50.5001697,51.0669158 L50.5001697,37.308184 C70.0230224,34.9327033 83.9153035,25.4718122 94.6878182,16.5987745 L94.6878182,71.7763252 Z M113.625382,44.1876485 C113.625382,40.0655721 110.989904,36.5601502 107.312861,35.2597708 L107.312861,12.6250424 C107.312861,5.65227095 101.660392,0 94.6878182,0 C81.8684685,11.0469121 66.6698901,25.2500849 41.0313879,25.2500849 L9.46878182,25.2500849 C4.23925253,25.2500849 0,29.4893374 0,34.7188667 L0,53.6564303 C0,58.8857623 4.23925253,63.1252121 9.46878182,63.1252121 L18.0031132,63.1252121 C14.3059485,75.8784777 18.4921364,86.0826682 21.7144812,96.1554794 C22.0502284,97.2047388 22.7408577,98.1070348 23.6717573,98.6962692 C27.7709507,101.29111 37.1558944,101.78467 42.1700089,99.7121906 C45.3353438,98.4037233 46.107444,94.3025571 43.6538459,91.9128733 C40.0028415,88.3571485 37.7090291,84.6319719 39.7489598,79.9078389 C40.0746464,79.1546762 39.9971207,78.2882826 39.5428165,77.6051495 C36.3256006,72.7366175 38.8364059,65.3533349 45.1682592,63.2536325 C68.3336339,64.6808541 82.5738927,77.9361623 94.6878182,88.375297 C101.660392,88.375297 107.312861,82.7226315 107.312861,75.7502546 L107.312861,53.1153289 C110.989904,51.8151468 113.625382,48.3097249 113.625382,44.1876485 Z" id="Page-1"></path>
                </g>
            </g>
        </g>
    </g>
</svg>