<?xml version="1.0" encoding="UTF-8"?>
<svg width="119px" height="116px" viewBox="0 0 119 116" version="1.1" xmlns="http://www.w3.org/2000/svg" xmlns:xlink="http://www.w3.org/1999/xlink">
    <!-- Generator: Sketch 49.3 (51167) - http://www.bohemiancoding.com/sketch -->
    <title>calendar</title>
    <desc>Created with Sketch.</desc>
    <defs></defs>
    <g id="Symbols" stroke="none" stroke-width="1" fill="none" fill-rule="evenodd">
        <g id="Event-card" transform="translate(-71.000000, -182.000000)" fill="#9B9B9B" fill-rule="nonzero">
            <g id="blog-1">
                <g id="calendar" transform="translate(71.000000, 182.000000)">
                    <path d="M118.266599,92.7426395 C111.087845,81.7250824 101.502554,75.5091027 91.1777324,75.1067473 C90.6322778,75.0431095 90.0786517,75 89.5168539,75 C88.5178754,75 87.5454545,75.1088002 86.6057201,75.3058722 C77.2145046,76.5211496 68.5628192,82.5975366 61.9519918,92.7426395 L61,94.2022041 L61.7334014,95.3271568 C69.1593463,106.724488 79.1573034,113 89.8907048,113 C100.624106,113 110.622063,106.722435 118.048008,95.3271568 L119,93.8675922 L118.266599,92.7426395 Z M99.5474974,89.1830263 C99.5474974,94.7400465 95.0490296,99.2603857 89.5188968,99.2603857 C83.988764,99.2603857 79.4902962,94.7400465 79.4902962,89.1830263 C79.4902962,84.3691319 82.8712972,80.3455783 87.3677222,79.3520069 C88.2768131,79.2432067 89.1899898,79.1734104 90.1113381,79.1734104 C90.1521961,79.1734104 90.1930541,79.1775161 90.2339122,79.1775161 C95.4249234,79.5531846 99.5474974,83.8702933 99.5474974,89.1830263 Z M89.8907048,108.894333 C80.9284985,108.894333 72.4504597,103.686295 65.9009193,94.1939928 C69.0858018,89.4991627 72.7405516,85.8410135 76.6894791,83.3037113 C75.8723187,85.0978877 75.4044944,87.0850305 75.4044944,89.1830263 C75.4044944,97.0043218 81.7374872,103.366053 89.5188968,103.366053 C97.3003064,103.366053 103.633299,97.0022689 103.633299,89.1830263 C103.633299,86.6867808 102.983657,84.342445 101.85189,82.3019286 C106.354443,84.7796986 110.517875,88.6800821 114.101124,93.8758036 C107.522983,103.571336 98.9550562,108.894333 89.8907048,108.894333 Z" id="Shape"></path>
                    <path d="M72.7631579,65.3793103 L91,65.3793103 L91,43 L72.7631579,43 L68.7105263,43 L54.5263158,43 L50.4736842,43 L36.2894737,43 L32.2368421,43 L14,43 L14,61.3103448 L14,65.3793103 L14,79.6206897 L14,83.6896552 L14,102 L32.2368421,102 L36.2894737,102 L54.5263158,102 L54.5263158,83.6896552 L54.5263158,79.6206897 L54.5263158,65.3793103 L68.7105263,65.3793103 L72.7631579,65.3793103 Z M72.7631579,47.0689655 L86.9473684,47.0689655 L86.9473684,61.3103448 L72.7631579,61.3103448 L72.7631579,47.0689655 Z M36.2894737,47.0689655 L50.4736842,47.0689655 L50.4736842,61.3103448 L36.2894737,61.3103448 L36.2894737,47.0689655 Z M18.0526316,47.0689655 L32.2368421,47.0689655 L32.2368421,61.3103448 L18.0526316,61.3103448 L18.0526316,47.0689655 Z M18.0526316,65.3793103 L32.2368421,65.3793103 L32.2368421,79.6206897 L18.0526316,79.6206897 L18.0526316,65.3793103 Z M32.2368421,97.9310345 L18.0526316,97.9310345 L18.0526316,83.6896552 L32.2368421,83.6896552 L32.2368421,97.9310345 Z M50.4736842,97.9310345 L36.2894737,97.9310345 L36.2894737,83.6896552 L50.4736842,83.6896552 L50.4736842,97.9310345 Z M50.4736842,79.6206897 L36.2894737,79.6206897 L36.2894737,65.3793103 L50.4736842,65.3793103 L50.4736842,79.6206897 Z M54.5263158,61.3103448 L54.5263158,47.0689655 L68.7105263,47.0689655 L68.7105263,61.3103448 L54.5263158,61.3103448 Z" id="Shape"></path>
                    <path d="M53,111.929825 L4.07692308,111.929825 L4.07692308,32.5614035 L101.923077,32.5614035 L101.923077,67.1578947 C101.923077,68.2832982 102.836308,69.1929825 103.961538,69.1929825 C105.086769,69.1929825 106,68.2832982 106,67.1578947 L106,30.5263158 L106,10.1754386 C106,9.05003509 105.086769,8.14035088 103.961538,8.14035088 L93.7692308,8.14035088 L93.7692308,2.03508772 C93.7692308,0.909684211 92.856,0 91.7307692,0 L77.4615385,0 C76.3363077,0 75.4230769,0.909684211 75.4230769,2.03508772 L75.4230769,8.14035088 L30.5769231,8.14035088 L30.5769231,2.03508772 C30.5769231,0.909684211 29.6636923,0 28.5384615,0 L14.2692308,0 C13.144,0 12.2307692,0.909684211 12.2307692,2.03508772 L12.2307692,8.14035088 L2.03846154,8.14035088 C0.913230769,8.14035088 0,9.05003509 0,10.1754386 L0,30.5263158 L0,113.964912 C0,115.090316 0.913230769,116 2.03846154,116 L53,116 C54.1252308,116 55.0384615,115.090316 55.0384615,113.964912 C55.0384615,112.839509 54.1252308,111.929825 53,111.929825 Z M79.5,4.07017544 L89.6923077,4.07017544 L89.6923077,10.1754386 L89.6923077,16.2807018 L79.5,16.2807018 L79.5,10.1754386 L79.5,4.07017544 Z M16.3076923,4.07017544 L26.5,4.07017544 L26.5,10.1754386 L26.5,16.2807018 L16.3076923,16.2807018 L16.3076923,10.1754386 L16.3076923,4.07017544 Z M4.07692308,12.2105263 L12.2307692,12.2105263 L12.2307692,18.3157895 C12.2307692,19.441193 13.144,20.3508772 14.2692308,20.3508772 L28.5384615,20.3508772 C29.6636923,20.3508772 30.5769231,19.441193 30.5769231,18.3157895 L30.5769231,12.2105263 L75.4230769,12.2105263 L75.4230769,18.3157895 C75.4230769,19.441193 76.3363077,20.3508772 77.4615385,20.3508772 L91.7307692,20.3508772 C92.856,20.3508772 93.7692308,19.441193 93.7692308,18.3157895 L93.7692308,12.2105263 L101.923077,12.2105263 L101.923077,28.4912281 L4.07692308,28.4912281 L4.07692308,12.2105263 Z" id="Shape"></path>
                </g>
            </g>
        </g>
    </g>
</svg>