<svg version="1.1" id="figure3" xmlns="http://www.w3.org/2000/svg" xmlns:xlink="http://www.w3.org/1999/xlink" x="0px" y="0px"
	 viewBox="0 0 436.1 325.8" style="enable-background:new 0 0 436.1 325.8;" xml:space="preserve" onload="initSVG()">
<style type="text/css">
  @import url('https://use.typekit.net/ret0ejy.css');
  .section, .numbers {transition: opacity 0.3s ease}
	.st0{fill:none;stroke:#DADADA;stroke-width:0.25;stroke-miterlimit:10;}
	.st1{fill:#575756;stroke:#575756;stroke-width:0.5;stroke-miterlimit:10;}
	.st2{fill:#706F6F;}
	.st3{font-family:'proxima-nova';}
	.st4{font-size:8px;}
	.st5{fill:#646363;}
	.st6{font-family:'proxima-nova'; font-weight:800}
	.st7{font-size:6.003px;}
	.st8{fill:none;stroke:#000000;stroke-miterlimit:10;}
	.st9{fill:#82368C; opacity:0}
	.st10{font-family:'proxima-nova'; font-weight:600}
	.st11{font-size:16px;}
	.st12{fill:#ACACAC;}
	.st13{fill:none;}
	.st14{fill:#3DB077;}
	.st15{font-size:5px;}
	.st16{fill:#FDC837;}
	.st17{font-size:11px;}
	.st18{fill:#FFE9BA;}
	.st19{fill:#E14412;}
	.st20{fill:#F6BB9A;}
	.st21{fill:#203053;}
	.st22{fill:#366EB3;}
	.hide {
		opacity:0
	}
</style>
<g id="chart">
	<g>
		<line class="st0" x1="223.4" y1="301.4" x2="223.4" y2="13.9"/>
		<line class="st0" x1="270.1" y1="301.4" x2="270.1" y2="13.9"/>
		<line class="st0" x1="316.8" y1="301.4" x2="316.8" y2="13.9"/>
		<line class="st0" x1="363.4" y1="301.4" x2="363.4" y2="13.9"/>
		<line class="st0" x1="410.1" y1="301.4" x2="410.1" y2="13.9"/>
		<line class="st1" x1="0" y1="125.3" x2="436.1" y2="125.3"/>
		<line class="st1" x1="436.1" y1="37.2" x2="0" y2="37.2"/>
		<line class="st1" x1="0" y1="212.1" x2="436.1" y2="212.1"/>
		<line class="st1" x1="0" y1="301.4" x2="436.1" y2="301.4"/>
	</g>
	<g>
		<text transform="matrix(1 0 0 1 163.8431 318.0843)" class="st2 st3 st4">0,000</text>
		<text transform="matrix(1 0 0 1 211.347 318.0843)" class="st2 st3 st4">0,200</text>
		<text transform="matrix(1 0 0 1 258.8763 318.0843)" class="st2 st3 st4">0,400</text>
		<text transform="matrix(1 0 0 1 306.1234 318.0843)" class="st2 st3 st4">0,600</text>
		<text transform="matrix(1 0 0 1 353.5648 318.0843)" class="st2 st3 st4">0,800</text>
		<text transform="matrix(1 0 0 1 402.0501 318.0843)" class="st2 st3 st4">1,000</text>
	</g>
	<text transform="matrix(1 0 0 1 7.1604 310.5421)"><tspan x="0" y="0" class="st5 st6 st7">Colores:</tspan><tspan x="25" y="0" class="st5 st3 st7">media mundial de 2020 </tspan></text>
	<text transform="matrix(1 0 0 1 7.1595 318.0921)"><tspan x="0" y="0" class="st5 st6 st7">Gris claro:</tspan><tspan x="28.8" y="0" class="st5 st3 st7"> media mundial de 2019 </tspan></text>
	<line class="st0" x1="175.9" y1="301" x2="175.9" y2="13.9"/>
</g>
<g id="idi" class="section">
	<rect x="0.5" y="0.6" class="st9" width="436.2" height="34.6"/>
	<g>
		<text transform="matrix(1 0 0 1 148.5992 30.1069)" class="st5 st10 st11">IDI</text>
	</g>
	<rect x="175.9" y="26" class="st12" width="142.9" height="2.7"/>

		<rect x="246.1" y="-46.9" transform="matrix(-1.836970e-16 1 -1 -1.836970e-16 272.1688 -222.7536)" class="st13" width="2.7" height="143.1"/>
	<rect x="175.9" y="23.4" class="st14" width="143.1" height="2.7"/>
	<text transform="matrix(1 0 0 1 320.7409 26.033)" class="st5 st3 st15">0,604</text>
</g>
<g id="impactgroup">
	<g id="impact" class="section">
		<rect x="0.5" y="38.8" class="st9" width="436.2" height="20.6"/>

			<rect x="267.5" y="-46.1" transform="matrix(-1.836970e-16 1 -1 -1.836970e-16 315.588 -221.9905)" class="st13" width="2.7" height="185.8"/>
		<rect x="175.9" y="45.5" class="st16" width="185.8" height="2.7"/>
		<g>
			<text transform="matrix(1 0 0 1 80 52.6259)" class="st5 st10 st17">Índice de Impacto</text>
		</g>
		<rect x="175.9" y="48.1" class="st12" width="190.3" height="2.7"/>
		<text transform="matrix(1 0 0 1 363.3971 47.8973)" class="st5 st3 st15">0,784</text>
	</g>
	<g id="scale" class="section">
		<rect x="0.5" y="60.1" class="st9" width="436.2" height="20.6"/>
		<g>
			<text transform="matrix(1 0 0 1 22 71.2244)" class="st5 st3 st4">Indicador de la escala del desplazamiento</text>
		</g>
		<rect x="175.9" y="70.2" class="st12" width="221.6" height="2.7"/>

			<rect x="283.5" y="-40" transform="matrix(-1.836970e-16 1 -1 -1.836970e-16 353.6752 -215.8954)" class="st13" width="2.7" height="217.8"/>
		<rect x="175.9" y="67.6" class="st18" width="217.8" height="2.7"/>
		<text transform="matrix(1 0 0 1 395.3892 69.9886)" class="st5 st3 st15">0,919</text>
	</g>
	<g id="severity" class="section">
		<rect x="0.5" y="81" class="st9" width="436.2" height="20.6"/>
		<g>
			<text transform="matrix(1 0 0 1 89 93.6633)" class="st5 st3 st4">Indicador de gravedad</text>
		</g>
		<rect x="175.9" y="92.3" class="st12" width="88.9" height="2.7"/>

			<rect x="217.5" y="48.1" transform="matrix(-1.836970e-16 1 -1 -1.836970e-16 309.7678 -127.8057)" class="st13" width="2.7" height="85.8"/>
		<rect x="175.9" y="89.7" class="st18" width="85.8" height="2.7"/>
		<text transform="matrix(1 0 0 1 263.3921 92.0799)" class="st5 st3 st15">0,362</text>
	</g>
	<g id="economic" class="section">
		<rect x="0.5" y="102.3" class="st9" width="436.2" height="20.6"/>
		<g>
			<text transform="matrix(1 0 0 1 52 115.1815)" class="st5 st3 st4">Indicador del impacto económico</text>
		</g>
		<rect x="175.9" y="114.4" class="st12" width="225.1" height="2.7"/>

			<rect x="286.5" y="1.1" transform="matrix(-1.836970e-16 1 -1 -1.836970e-16 400.9383 -174.7938)" class="st13" width="2.7" height="223.9"/>
		<rect x="175.9" y="111.7" class="st18" width="223.9" height="2.7"/>
		<text transform="matrix(1 0 0 1 401.5507 114.3978)" class="st5 st3 st15">0,945</text>
	</g>
</g>
<g id="contextgroup">
	<g id="context" class="section">
		<rect x="1.5" y="125.9" class="st9" width="434.2" height="22.3"/>
		<g>
			<text transform="matrix(1 0 0 1 78 142.7011)" class="st5 st10 st17">Índice de contexto</text>
		</g>
		<rect x="175.9" y="136.5" class="st12" width="95" height="2.7"/>

			<rect x="218.9" y="90.8" transform="matrix(-1.836970e-16 1 -1 -1.836970e-16 355.372 -85.0452)" class="st13" width="2.7" height="88.6"/>
		<rect x="175.9" y="133.8" class="st19" width="88.6" height="2.7"/>
		<text transform="matrix(1 0 0 1 266.2358 136.262)" class="st5 st3 st15">0,374</text>
	</g>
	<g id="environmental" class="section">
		<rect x="1.5" y="149.5" class="st9" width="434.2" height="22.3"/>
		<g>
			<text transform="matrix(1 0 0 1 37 159.7682)" class="st5 st3 st4">Indicador de sostenibilidad ambiental</text>
		</g>
		<rect x="175.9" y="158.6" class="st12" width="112.1" height="2.7"/>

			<rect x="218.4" y="113.4" transform="matrix(-1.836970e-16 1 -1 -1.836970e-16 376.9892 -62.4801)" class="st13" width="2.7" height="87.7"/>
		<rect x="175.9" y="155.9" class="st20" width="87.7" height="2.7"/>
		<text transform="matrix(1 0 0 1 265.2879 158.3533)" class="st5 st3 st15">0,370</text>
	</g>
	<g id="socioeconomic" class="section">
		<rect x="1.5" y="172.1" class="st9" width="434.2" height="22.3"/>
		<g>
			<text transform="matrix(1 0 0 1 28 181.7383)" class="st5 st3 st4">Indicador de desarrollo socioeconómico</text>
		</g>
		<rect x="175.9" y="180.7" class="st12" width="137.9" height="2.7"/>

			<rect x="245.7" y="108.3" transform="matrix(-1.836970e-16 1 -1 -1.836970e-16 426.3329 -67.6415)" class="st13" width="2.7" height="142.2"/>
		<rect x="175.9" y="178" class="st20" width="142.2" height="2.7"/>
		<text transform="matrix(1 0 0 1 319.793 180.6712)" class="st5 st3 st15">0,600</text>
	</g>
	<g id="security" class="section">
		<rect x="1.5" y="195.2" class="st9" width="434.2" height="16.5"/>
		<g>
			<text transform="matrix(1 0 0 1 40 204.156)" class="st5 st3 st4">Indicador de seguridad y estabilidad</text>
		</g>
		<rect x="175.9" y="202.8" class="st12" width="38.6" height="2.7"/>

			<rect x="194.2" y="181.8" transform="matrix(-1.836970e-16 1 -1 -1.836970e-16 396.9997 5.874)" class="st13" width="2.7" height="39.3"/>
		<rect x="175.9" y="200.1" class="st20" width="39.3" height="2.7"/>
		<text transform="matrix(1 0 0 1 216.9442 202.762)" class="st5 st3 st15">0,166</text>
	</g>
</g>
<g id="policiesgroup">
	<g id="policies" class="section">
		<rect x="1.5" y="214.5" class="st9" width="434.2" height="19"/>
		<g>
			<text transform="matrix(1 0 0 1 5 227.7765)" class="st5 st10 st17">Índice de políticas y capacidades</text>
		</g>
		<rect x="175.9" y="224.9" class="st12" width="144.8" height="2.7"/>

			<rect x="252.5" y="145.6" transform="matrix(-1.836970e-16 1 -1 -1.836970e-16 477.3877 -30.3316)" class="st13" width="2.7" height="155.9"/>
		<rect x="175.9" y="222.2" class="st21" width="155.9" height="2.7"/>
		<text transform="matrix(1 0 0 1 333.5378 224.8538)" class="st5 st3 st15">0,658</text>
	</g>
	<g id="data" class="section">
		<rect x="1.5" y="236.2" class="st9" width="434.2" height="19"/>
		<g>
			<text transform="matrix(1 0 0 1 102 247.2946)" class="st5 st3 st4">Indicador de datos</text>
		</g>
		<rect x="175.9" y="247" class="st12" width="105" height="2.7"/>

			<rect x="233.2" y="187" transform="matrix(-1.836970e-16 1 -1 -1.836970e-16 480.165 11.0734)" class="st13" width="2.7" height="117.3"/>
		<rect x="175.9" y="244.3" class="st22" width="117.3" height="2.7"/>
		<text transform="matrix(1 0 0 1 294.9102 246.9446)" class="st5 st3 st15">0,495</text>
	</g>
	<g id="implementation" class="section">
		<rect x="1.5" y="258.9" class="st9" width="434.2" height="19"/>
		<g>
			<text transform="matrix(1 0 0 1 97 270.0518)" class="st5 st3 st4">Indicador de política</text>
		</g>
		<rect x="175.9" y="269.1" class="st12" width="143.8" height="2.7"/>

			<rect x="249.2" y="193.1" transform="matrix(-1.836970e-16 1 -1 -1.836970e-16 518.2523 17.1684)" class="st13" width="2.7" height="149.3"/>
		<rect x="175.9" y="266.4" class="st22" width="149.3" height="2.7"/>
		<text transform="matrix(1 0 0 1 326.9024 269.0355)" class="st5 st3 st15">0,630</text>
	</g>
	<g id="policy" class="section">
		<rect x="1.5" y="280.2" class="st9" width="434.2" height="19"/>
		<g>
			<text transform="matrix(1 0 0 1 88 292.8177)" class="st5 st3 st4">Indicador de ejecución</text>
		</g>
		<rect x="175.9" y="291.1" class="st12" width="185.6" height="2.7"/>

			<rect x="275" y="189.3" transform="matrix(-1.836970e-16 1 -1 -1.836970e-16 566.1741 13.4289)" class="st13" width="2.7" height="201"/>
		<rect x="175.9" y="288.5" class="st22" width="201" height="2.7"/>
		<text transform="matrix(1 0 0 1 378.5637 291.1273)" class="st5 st3 st15">0,848</text>
	</g>
</g>

  <script type='application/ecmascript'>
  <![CDATA[


  	 if (!Array.from) {
  Array.from = (function () {
    var toStr = Object.prototype.toString;
    var isCallable = function (fn) {
      return typeof fn === 'function' || toStr.call(fn) === '[object Function]';
    };
    var toInteger = function (value) {
      var number = Number(value);
      if (isNaN(number)) { return 0; }
      if (number === 0 || !isFinite(number)) { return number; }
      return (number > 0 ? 1 : -1) * Math.floor(Math.abs(number));
    };
    var maxSafeInteger = Math.pow(2, 53) - 1;
    var toLength = function (value) {
      var len = toInteger(value);
      return Math.min(Math.max(len, 0), maxSafeInteger);
    };

    // The length property of the from method is 1.
    return function from(arrayLike/*, mapFn, thisArg */) {
      // 1. Let C be the this value.
      var C = this;

      // 2. Let items be ToObject(arrayLike).
      var items = Object(arrayLike);

      // 3. ReturnIfAbrupt(items).
      if (arrayLike == null) {
        throw new TypeError("Array.from requires an array-like object - not null or undefined");
      }

      // 4. If mapfn is undefined, then let mapping be false.
      var mapFn = arguments.length > 1 ? arguments[1] : void undefined;
      var T;
      if (typeof mapFn !== 'undefined') {
        // 5. else
        // 5. a If IsCallable(mapfn) is false, throw a TypeError exception.
        if (!isCallable(mapFn)) {
          throw new TypeError('Array.from: when provided, the second argument must be a function');
        }

        // 5. b. If thisArg was supplied, let T be thisArg; else let T be undefined.
        if (arguments.length > 2) {
          T = arguments[2];
        }
      }

      // 10. Let lenValue be Get(items, "length").
      // 11. Let len be ToLength(lenValue).
      var len = toLength(items.length);

      // 13. If IsConstructor(C) is true, then
      // 13. a. Let A be the result of calling the [[Construct]] internal method of C with an argument list containing the single item len.
      // 14. a. Else, Let A be ArrayCreate(len).
      var A = isCallable(C) ? Object(new C(len)) : new Array(len);

      // 16. Let k be 0.
      var k = 0;
      // 17. Repeat, while k < len… (also steps a - h)
      var kValue;
      while (k < len) {
        kValue = items[k];
        if (mapFn) {
          A[k] = typeof T === 'undefined' ? mapFn(kValue, k) : mapFn.call(T, kValue, k);
        } else {
          A[k] = kValue;
        }
        k += 1;
      }
      // 18. Let putStatus be Put(A, "length", len, true).
      A.length = len;
      // 20. Return A.
      return A;
    };
  }());
}


// Production steps of ECMA-262, Edition 5, 15.4.4.18
// Reference: http://es5.github.io/#x15.4.4.18
if (!Array.prototype.forEach) {

  Array.prototype.forEach = function(callback/*, thisArg*/) {

    var T, k;

    if (this == null) {
      throw new TypeError('this is null or not defined');
    }

    // 1. Let O be the result of calling toObject() passing the
    // |this| value as the argument.
    var O = Object(this);

    // 2. Let lenValue be the result of calling the Get() internal
    // method of O with the argument "length".
    // 3. Let len be toUint32(lenValue).
    var len = O.length >>> 0;

    // 4. If isCallable(callback) is false, throw a TypeError exception.
    // See: http://es5.github.com/#x9.11
    if (typeof callback !== 'function') {
      throw new TypeError(callback + ' is not a function');
    }

    // 5. If thisArg was supplied, let T be thisArg; else let
    // T be undefined.
    if (arguments.length > 1) {
      T = arguments[1];
    }

    // 6. Let k be 0.
    k = 0;

    // 7. Repeat while k < len.
    while (k < len) {

      var kValue;

      // a. Let Pk be ToString(k).
      //    This is implicit for LHS operands of the in operator.
      // b. Let kPresent be the result of calling the HasProperty
      //    internal method of O with argument Pk.
      //    This step can be combined with c.
      // c. If kPresent is true, then
      if (k in O) {

        // i. Let kValue be the result of calling the Get internal
        // method of O with argument Pk.
        kValue = O[k];

        // ii. Call the Call internal method of callback with T as
        // the this value and argument list containing kValue, k, and O.
        callback.call(T, kValue, k, O);
      }
      // d. Increase k by 1.
      k++;
    }
    // 8. return undefined.
  };
}

// Overwrites native 'children' prototype.
// Adds Document & DocumentFragment support for IE9 & Safari.
// Returns array instead of HTMLCollection.
;(function(constructor) {
    if (constructor &&
        constructor.prototype &&
        constructor.prototype.children == null) {
        Object.defineProperty(constructor.prototype, 'children', {
            get: function() {
                var i = 0, node, nodes = this.childNodes, children = [];
                while (node = nodes[i++]) {
                    if (node.nodeType === 1) {
                        children.push(node);
                    }
                }
                return children;
            }
        });
    }
})(window.Node || window.Element);


var sections = Array.from(document.getElementsByClassName("section"));


    	 function highlight(s) {
        sections.forEach(function(section) {
            if (section == s) {
                section.style.opacity=1;
            } else {
                section.style.opacity=0.3;
            }
        })
    }
    function reset(s) {
        sections.forEach(function(section) {
            section.style.opacity=1;
        })
    }

function getPos(e){
	x=e.clientX;
	y=e.clientY;
	//console.log("Your Mouse Position Is : " + x + " and " + y );
	return [x,y];
}

function initSVG() {
  	sections.forEach(function(g){
 		g.addEventListener("mouseover", function(evt){
			parent.showavgtooltip(this.id, getPos(evt),"avgtooltip",this,"es");
			highlight(g);
		});
		g.addEventListener("mouseout", function(evt){
			reset(g);
			parent.hidetooltip("avgtooltip");
		});
	});




 }





  ]]>
</script>

</svg>

