<?xml version="1.0" encoding="utf-8"?>
<!-- Generator: Adobe Illustrator 23.0.0, SVG Export Plug-In . SVG Version: 6.00 Build 0)  -->
<svg version="1.1" id="disasters-conflicts" xmlns="http://www.w3.org/2000/svg" onload="initSVG();" xmlns:xlink="http://www.w3.org/1999/xlink"
	 x="0px" y="0px" viewBox="0 0 496.6 217.02" style="enable-background:new 0 0 496.6 217.02;" xml:space="preserve">
<style type="text/css">
	@import url("https://fonts.googleapis.com/css?family=Roboto:400");
	.st0{fill:#30AEE4;}
	.st1{font-family:'Roboto';}
	.st2{font-size:12px;}
	.st3{fill:#F2901F;}
	.st4{fill:#636463;}
	.st5{font-size:10px;}
	.st6{opacity:0;fill:#636463;}
	#disasters >a >g,#conflicts >a >g {
	transition: opacity 0.5s ease;
	}
</style>
<text transform="matrix(1 0 0 1 173.0827 14.634)" class="st0 st1 st2">Disasters</text>
<text transform="matrix(1 0 0 1 368.2653 15.3997)" class="st3 st1 st2">Conflict and violence</text>
<g id="disasters">
	<a xlink:href="http://internal-displacement.org/countries/india" target="_blank">
	<g id="india" class="dis">
		<g>
			<g>
				<text transform="matrix(1 0 0 1 10.5644 38.9434)"><tspan x="0" y="0" class="st4 st1 st5">2</tspan><tspan x="5.56" y="0" class="st4 st1 st5">,</tspan><tspan x="7.45" y="0" class="st4 st1 st5">2m</tspan></text>
			</g>
			<polygon class="st0" points="38.47,29.95 220.07,29.95 220.07,42.14 38.47,42.14 38.47,29.95 			"/>
			<g>
				<g>
					<g>
						<text transform="matrix(1 0 0 1 226.0097 38.441)"><tspan x="0" y="0" class="st4 st1 st5">I</tspan><tspan x="2.86" y="0" class="st4 st1 st5">nd</tspan><tspan x="14.16" y="0" class="st4 st1 st5">i</tspan><tspan x="16.29" y="0" class="st4 st1 st5">a</tspan></text>
					</g>
				</g>
			</g>
		</g>
		<rect x="7.62" y="27.66" class="st6" width="279.11" height="15.11"/>
		</g></a><a xlink:href="http://internal-displacement.org/countries/bangladesh" target="_blank">
	<g id="bangladesh" class="dis">
		<g>
			<g>
				<text transform="matrix(1 0 0 1 44.7345 57.6027)"><tspan x="0" y="0" class="st4 st1 st5">1</tspan><tspan x="5.56" y="0" class="st4 st1 st5">,</tspan><tspan x="7.45" y="0" class="st4 st1 st5">7m</tspan></text>
			</g>
			<polygon class="st0" points="80.26,48.61 220.07,48.61 220.07,60.8 80.26,60.8 80.26,48.61 			"/>
			<g>
				<g>
					<g>
						<text transform="matrix(1 0 0 1 226.0097 57.1002)"><tspan x="0" y="0" class="st4 st1 st5">B</tspan><tspan x="6.13" y="0" class="st4 st1 st5">a</tspan><tspan x="11.45" y="0" class="st4 st1 st5">n</tspan><tspan x="17.03" y="0" class="st4 st1 st5">g</tspan><tspan x="22.6" y="0" class="st4 st1 st5">l</tspan><tspan x="25.4" y="0" class="st4 st1 st5">a</tspan><tspan x="30.72" y="0" class="st4 st1 st5">d</tspan><tspan x="36.43" y="0" class="st4 st1 st5">e</tspan><tspan x="41.43" y="0" class="st4 st1 st5">s</tspan><tspan x="46.66" y="0" class="st4 st1 st5">h</tspan></text>
					</g>
				</g>
			</g>
		</g>
		<rect x="7.62" y="47.21" class="st6" width="279.11" height="15.11"/>
	</g></a><a xlink:href="http://internal-displacement.org/countries/mozambique" target="_blank">
	<g id="mozambique" class="dis">
		<g>
			<g>
				<text transform="matrix(1 0 0 1 138.6921 76.2616)"><tspan x="0" y="0" class="st4 st1 st5">502</tspan><tspan x="16.67" y="0" class="st4 st1 st5">,</tspan><tspan x="18.56" y="0" class="st4 st1 st5">00</tspan><tspan x="29.67" y="0" class="st4 st1 st5">0</tspan></text>
			</g>
			<polygon class="st0" points="178.28,68.03 220.07,68.03 220.07,78.69 178.28,78.69 178.28,68.03 			"/>
			<g>
				<g>
					<g>
						<text transform="matrix(1 0 0 1 226.0097 75.7597)"><tspan x="0" y="0" class="st4 st1 st5">M</tspan><tspan x="8.84" y="0" class="st4 st1 st5">o</tspan><tspan x="14.59" y="0" class="st4 st1 st5">z</tspan><tspan x="19.59" y="0" class="st4 st1 st5">a</tspan><tspan x="24.91" y="0" class="st4 st1 st5">m</tspan><tspan x="33.68" y="0" class="st4 st1 st5">b</tspan><tspan x="39.36" y="0" class="st4 st1 st5">i</tspan><tspan x="41.5" y="0" class="st4 st1 st5">qu</tspan><tspan x="52.84" y="0" class="st4 st1 st5">e</tspan></text>
					</g>
				</g>
			</g>
		</g>
		<rect x="7.62" y="65.43" class="st6" width="279.11" height="15.11"/>
	</g></a><a xlink:href="http://internal-displacement.org/countries/iran" target="_blank">
	<g id="iran" class="dis">
		<g>
			<g>
				<text transform="matrix(1 0 0 1 138.6921 94.9206)"><tspan x="0" y="0" class="st4 st1 st5">501</tspan><tspan x="16.67" y="0" class="st4 st1 st5">,</tspan><tspan x="18.56" y="0" class="st4 st1 st5">00</tspan><tspan x="29.67" y="0" class="st4 st1 st5">0</tspan></text>
			</g>
			<polygon class="st0" points="178.28,85.93 220.07,85.93 220.07,98.12 178.28,98.12 178.28,85.93 			"/>
			<g>
				<g>
					<g>
						<text transform="matrix(1 0 0 1 226.0097 94.4189)"><tspan x="0" y="0" class="st4 st1 st5">I</tspan><tspan x="2.86" y="0" class="st4 st1 st5">r</tspan><tspan x="6.09" y="0" class="st4 st1 st5">a</tspan><tspan x="11.41" y="0" class="st4 st1 st5">n</tspan></text>
					</g>
				</g>
			</g>
		</g>
		<rect x="7.62" y="84.55" class="st6" width="279.11" height="15.11"/>
	</g></a><a xlink:href="http://internal-displacement.org/countries/philippines" target="_blank">
	<g id="philippines" class="dis">
		<g>
			<g>
				<text transform="matrix(1 0 0 1 138.6921 113.5803)"><tspan x="0" y="0" class="st4 st1 st5">484</tspan><tspan x="16.67" y="0" class="st4 st1 st5">,</tspan><tspan x="18.56" y="0" class="st4 st1 st5">00</tspan><tspan x="29.67" y="0" class="st4 st1 st5">0</tspan></text>
			</g>
			<polygon class="st0" points="179.8,104.59 220.07,104.59 220.07,116.77 179.8,116.77 179.8,104.59 			"/>
			<g>
				<g>
					<g>
						<text transform="matrix(1 0 0 1 226.0097 113.0782)"><tspan x="0" y="0" class="st4 st1 st5">P</tspan><tspan x="6.47" y="0" class="st4 st1 st5">h</tspan><tspan x="12.05" y="0" class="st4 st1 st5">i</tspan><tspan x="14.18" y="0" class="st4 st1 st5">l</tspan><tspan x="16.98" y="0" class="st4 st1 st5">i</tspan><tspan x="19.12" y="0" class="st4 st1 st5">pp</tspan><tspan x="30.48" y="0" class="st4 st1 st5">i</tspan><tspan x="32.61" y="0" class="st4 st1 st5">n</tspan><tspan x="38.2" y="0" class="st4 st1 st5">e</tspan><tspan x="43.85" y="0" class="st4 st1 st5">s</tspan></text>
					</g>
				</g>
			</g>
		</g>
		<rect x="7.62" y="102.77" class="st6" width="279.11" height="15.11"/>
	</g></a><a xlink:href="http://internal-displacement.org/countries/brazil" target="_blank">
	<g id="brazil" class="dis">
		<g>
			<g>
				<text transform="matrix(1 0 0 1 159.9262 132.2398)"><tspan x="0" y="0" class="st4 st1 st5">253</tspan><tspan x="16.67" y="0" class="st4 st1 st5">,</tspan><tspan x="18.56" y="0" class="st4 st1 st5">00</tspan><tspan x="29.67" y="0" class="st4 st1 st5">0</tspan></text>
			</g>
			<polygon class="st0" points="199.56,124.01 220.07,124.01 220.07,134.67 199.56,134.67 199.56,124.01 			"/>
			<g>
				<g>
					<g>
						<text transform="matrix(1 0 0 1 226.0097 131.7374)"><tspan x="0" y="0" class="st4 st1 st5">B</tspan><tspan x="6.13" y="0" class="st4 st1 st5">r</tspan><tspan x="9.36" y="0" class="st4 st1 st5">a</tspan><tspan x="15.34" y="0" class="st4 st1 st5">z</tspan><tspan x="20.33" y="0" class="st4 st1 st5">i</tspan><tspan x="22.47" y="0" class="st4 st1 st5">l</tspan></text>
					</g>
				</g>
			</g>
		</g>
		<rect x="7.62" y="120.99" class="st6" width="279.11" height="15.11"/>
	</g></a><a xlink:href="http://internal-displacement.org/countries/ethiopia" target="_blank">
	<g id="ethiopia_1_" class="dis">
		<g>
			<g>
				<text transform="matrix(1 0 0 1 160.5219 150.899)"><tspan x="0" y="0" class="st4 st1 st5">233</tspan><tspan x="16.67" y="0" class="st4 st1 st5">,</tspan><tspan x="18.56" y="0" class="st4 st1 st5">00</tspan><tspan x="29.67" y="0" class="st4 st1 st5">0</tspan></text>
			</g>
			<polygon class="st0" points="201.08,141.9 220.07,141.9 220.07,154.09 201.08,154.09 201.08,141.9 			"/>
			<g>
				<g>
					<g>
						<text transform="matrix(1 0 0 1 226.0097 150.3966)"><tspan x="0" y="0" class="st4 st1 st5">E</tspan><tspan x="5.47" y="0" class="st4 st1 st5">t</tspan><tspan x="8.73" y="0" class="st4 st1 st5">h</tspan><tspan x="14.31" y="0" class="st4 st1 st5">i</tspan><tspan x="17.1" y="0" class="st4 st1 st5">o</tspan><tspan x="22.86" y="0" class="st4 st1 st5">p</tspan><tspan x="27.89" y="0" class="st4 st1 st5">i</tspan><tspan x="30.68" y="0" class="st4 st1 st5">a</tspan></text>
					</g>
				</g>
			</g>
		</g>
		<rect x="7.62" y="140.55" class="st6" width="279.11" height="15.11"/>
	</g></a><a xlink:href="http://internal-displacement.org/countries/china" target="_blank">
	<g id="china" class="dis">
		<g>
			<g>
				<text transform="matrix(1 0 0 1 171.0538 169.5579)"><tspan x="0" y="0" class="st4 st1 st5">12</tspan><tspan x="11.11" y="0" class="st4 st1 st5">0</tspan><tspan x="16.73" y="0" class="st4 st1 st5">,</tspan><tspan x="18.62" y="0" class="st4 st1 st5">00</tspan><tspan x="29.73" y="0" class="st4 st1 st5">0</tspan></text>
			</g>
			<polygon class="st0" points="210.2,160.56 220.07,160.56 220.07,172.75 210.2,172.75 210.2,160.56 			"/>
			<g>
				<g>
					<g>
						<text transform="matrix(1 0 0 1 226.0097 169.0559)" class="st4 st1 st5">China</text>
					</g>
				</g>
			</g>
		</g>
		<rect x="7.62" y="157.43" class="st6" width="279.11" height="15.11"/>
	</g></a><a xlink:href="http://internal-displacement.org/countries/malawi" target="_blank">
	<g id="malawi" class="dis">
		<g>
			<g>
				<text transform="matrix(1 0 0 1 170.2879 188.2173)"><tspan x="0" y="0" class="st4 st1 st5">1</tspan><tspan x="5.56" y="0" class="st4 st1 st5">19</tspan><tspan x="16.79" y="0" class="st4 st1 st5">,</tspan><tspan x="18.68" y="0" class="st4 st1 st5">00</tspan><tspan x="29.79" y="0" class="st4 st1 st5">0</tspan></text>
			</g>
			<polygon class="st0" points="210.2,179.98 220.07,179.98 220.07,190.65 210.2,190.65 210.2,179.98 			"/>
			<g>
				<g>
					<g>
						<text transform="matrix(1 0 0 1 226.0097 187.7151)" class="st4 st1 st5">Malawi</text>
					</g>
				</g>
			</g>
		</g>
		<rect x="7.62" y="176.99" class="st6" width="279.11" height="15.11"/>
	</g></a><a xlink:href="http://internal-displacement.org/countries/indonesia" target="_blank">
	<g id="indonesia" class="dis">
		<g>
			<polygon class="st0" points="210.96,197.88 220.07,197.88 220.07,210.07 210.96,210.07 210.96,197.88 			"/>
			<g>
				<g>
					<g>
						<text transform="matrix(1 0 0 1 226.0097 206.3743)" class="st4 st1 st5">Indonesia</text>
					</g>
				</g>
			</g>
			<g>
				<text transform="matrix(1 0 0 1 169.3986 206.877)" class="st4 st1 st5">111,000</text>
			</g>
		</g>
		<rect x="7.62" y="195.66" class="st6" width="279.11" height="15.11"/>
	</g></a>
</g>
<g id="conflicts"><a xlink:href="http://internal-displacement.org/countries/syria" target="_blank">
	<g id="syria" class="con">
		<g>
			<polygon class="st3" points="436.33,30.71 436.33,41.38 369.46,41.38 369.46,30.71 436.33,30.71 			"/>
			<g>
				<g>
					<g>
						<text transform="matrix(1 0 0 1 343.8026 38.441)"><tspan x="0" y="0" class="st4 st1 st5">S</tspan><tspan x="6" y="0" class="st4 st1 st5">y</tspan><tspan x="10.87" y="0" class="st4 st1 st5">r</tspan><tspan x="14.11" y="0" class="st4 st1 st5">i</tspan><tspan x="16.24" y="0" class="st4 st1 st5">a</tspan></text>
					</g>
				</g>
			</g>
			<g>
				<text transform="matrix(1 0 0 1 443.5523 38.9435)" class="st4 st1 st5">804,000</text>
			</g>
		</g>
		<rect x="287.62" y="27.66" class="st6" width="202.22" height="15.11"/>
	</g></a><a xlink:href="http://internal-displacement.org/countries/democratic-republic-of-the-congo" target="_blank">
	<g id="democratic-republic-of-the-congo" class="con">
		<g>
			<polygon class="st3" points="429.49,48.61 429.49,60.8 369.46,60.8 369.46,48.61 429.49,48.61 			"/>
			<g>
				<g>
					<g>
						<text transform="matrix(1 0 0 1 287.6728 57.1002)"><tspan x="0" y="0" class="st4 st1 st5">D</tspan><tspan x="6.41" y="0" class="st4 st1 st5">e</tspan><tspan x="12.06" y="0" class="st4 st1 st5">m</tspan><tspan x="20.83" y="0" class="st4 st1 st5">.</tspan><tspan x="22.94" y="0" class="st4 st1 st5"> </tspan><tspan x="25.82" y="0" class="st4 st1 st5">R</tspan><tspan x="31.88" y="0" class="st4 st1 st5">e</tspan><tspan x="36.88" y="0" class="st4 st1 st5">p</tspan><tspan x="42.56" y="0" class="st4 st1 st5">.</tspan><tspan x="45.33" y="0" class="st4 st1 st5"> </tspan><tspan x="48.21" y="0" class="st4 st1 st5">C</tspan><tspan x="54.72" y="0" class="st4 st1 st5">o</tspan><tspan x="59.82" y="0" class="st4 st1 st5">n</tspan><tspan x="65.41" y="0" class="st4 st1 st5">g</tspan><tspan x="70.98" y="0" class="st4 st1 st5">o</tspan></text>
					</g>
				</g>
			</g>
			<g>
				<text transform="matrix(1 0 0 1 436.533 57.6024)" class="st4 st1 st5">718,000</text>
			</g>
		</g>
		<rect x="287.62" y="47.21" class="st6" width="202.22" height="15.11"/>
	</g></a><a xlink:href="http://internal-displacement.org/countries/ethiopia" target="_blank">
	<g id="ethiopia" class="con">
		<g>
			<polygon class="st3" points="414.29,67.27 414.29,79.46 369.46,79.46 369.46,67.27 414.29,67.27 			"/>
			<g>
				<g>
					<g>
						<text transform="matrix(1 0 0 1 329.0526 75.7595)"><tspan x="0" y="0" class="st4 st1 st5">E</tspan><tspan x="5.47" y="0" class="st4 st1 st5">t</tspan><tspan x="8.73" y="0" class="st4 st1 st5">h</tspan><tspan x="14.31" y="0" class="st4 st1 st5">i</tspan><tspan x="17.1" y="0" class="st4 st1 st5">o</tspan><tspan x="22.86" y="0" class="st4 st1 st5">p</tspan><tspan x="27.89" y="0" class="st4 st1 st5">i</tspan><tspan x="30.68" y="0" class="st4 st1 st5">a</tspan></text>
					</g>
				</g>
			</g>
			<g>
				<text transform="matrix(1 0 0 1 420.4481 76.2619)" class="st4 st1 st5">522,000 </text>
			</g>
		</g>
		<rect x="287.62" y="65.43" class="st6" width="202.22" height="15.11"/>
	</g></a><a xlink:href="http://internal-displacement.org/countries/yemen" target="_blank">
	<g id="yemen" class="con">
		<g>
			<polygon class="st3" points="393.02,86.69 393.02,97.35 369.46,97.35 369.46,86.69 393.02,86.69 			"/>
			<g>
				<g>
					<g>
						<text transform="matrix(1 0 0 1 333.703 94.4189)"><tspan x="0" y="0" class="st4 st1 st5">Y</tspan><tspan x="5.81" y="0" class="st4 st1 st5">e</tspan><tspan x="11.45" y="0" class="st4 st1 st5">m</tspan><tspan x="20.23" y="0" class="st4 st1 st5">e</tspan><tspan x="25.23" y="0" class="st4 st1 st5">n</tspan></text>
					</g>
				</g>
			</g>
			<g>
				<text transform="matrix(1 0 0 1 399.0013 94.9212)" class="st4 st1 st5">282,000</text>
			</g>
		</g>
		<rect x="287.62" y="84.55" class="st6" width="202.22" height="15.11"/>
	</g></a><a xlink:href="http://internal-displacement.org/countries/afghanistan" target="_blank">
	<g id="afghanistan" class="con">
		<g>
			<polygon class="st3" points="386.94,104.59 386.94,116.77 369.46,116.77 369.46,104.59 386.94,104.59 			"/>
			<g>
				<g>
					<g>
						<text transform="matrix(1 0 0 1 311.7528 113.0782)"><tspan x="0" y="0" class="st4 st1 st5">A</tspan><tspan x="6.73" y="0" class="st4 st1 st5">f</tspan><tspan x="9.83" y="0" class="st4 st1 st5">g</tspan><tspan x="15.4" y="0" class="st4 st1 st5">h</tspan><tspan x="20.97" y="0" class="st4 st1 st5">a</tspan><tspan x="26.29" y="0" class="st4 st1 st5">n</tspan><tspan x="31.88" y="0" class="st4 st1 st5">i</tspan><tspan x="34.68" y="0" class="st4 st1 st5">s</tspan><tspan x="39.91" y="0" class="st4 st1 st5">t</tspan><tspan x="43.17" y="0" class="st4 st1 st5">a</tspan><tspan x="48.49" y="0" class="st4 st1 st5">n</tspan></text>
					</g>
				</g>
			</g>
			<g>
				<text transform="matrix(1 0 0 1 395.1711 113.5804)" class="st4 st1 st5">213,000</text>
			</g>
		</g>
		<rect x="287.62" y="102.77" class="st6" width="202.22" height="15.11"/>
	</g></a><a xlink:href="http://internal-displacement.org/countries/burkina-faso" target="_blank">
	<g id="burkina-faso" class="con">
		<g>
			<polygon class="st3" points="383.9,123.25 383.9,135.43 369.46,135.43 369.46,123.25 383.9,123.25 			"/>
			<g>
				<g>
					<g>
						<text transform="matrix(1 0 0 1 309.623 131.7374)"><tspan x="0" y="0" class="st4 st1 st5">B</tspan><tspan x="6.13" y="0" class="st4 st1 st5">u</tspan><tspan x="11.71" y="0" class="st4 st1 st5">r</tspan><tspan x="14.94" y="0" class="st4 st1 st5">k</tspan><tspan x="20.13" y="0" class="st4 st1 st5">i</tspan><tspan x="22.93" y="0" class="st4 st1 st5">n</tspan><tspan x="27.87" y="0" class="st4 st1 st5">a</tspan><tspan x="33.84" y="0" class="st4 st1 st5"> </tspan><tspan x="36.06" y="0" class="st4 st1 st5">F</tspan><tspan x="41.66" y="0" class="st4 st1 st5">a</tspan><tspan x="46.98" y="0" class="st4 st1 st5">s</tspan><tspan x="52.21" y="0" class="st4 st1 st5">o</tspan></text>
					</g>
				</g>
			</g>
			<g>
				<text transform="matrix(1 0 0 1 394.4051 132.2398)" class="st4 st1 st5">173,000</text>
			</g>
		</g>
		<rect x="287.62" y="120.99" class="st6" width="202.22" height="15.11"/>
	</g></a><a xlink:href="http://internal-displacement.org/countries/mali" target="_blank">
	<g id="mali" class="con">
		<g>
			<polygon class="st3" points="380.86,142.67 380.86,153.33 369.46,153.33 369.46,142.67 380.86,142.67 			"/>
			<g>
				<g>
					<g>
						<text transform="matrix(1 0 0 1 345.5331 150.3966)"><tspan x="0" y="0" class="st4 st1 st5">M</tspan><tspan x="8.84" y="0" class="st4 st1 st5">a</tspan><tspan x="14.16" y="0" class="st4 st1 st5">l</tspan><tspan x="16.3" y="0" class="st4 st1 st5">i</tspan></text>
					</g>
				</g>
			</g>
			<g>
				<text transform="matrix(1 0 0 1 388.2779 150.8986)" class="st4 st1 st5">140,000</text>
			</g>
		</g>
		<rect x="287.62" y="140.55" class="st6" width="202.22" height="15.11"/>
	</g></a><a xlink:href="http://internal-displacement.org/countries/nigeria" target="_blank">
	<g id="nigeria" class="con">
		<g>
			<polygon class="st3" points="380.86,160.56 380.86,172.75 369.46,172.75 369.46,160.56 380.86,160.56 			"/>
			<g>
				<g>
					<g>
						<text transform="matrix(1 0 0 1 333.7733 169.0559)"><tspan x="0" y="0" class="st4 st1 st5">N</tspan><tspan x="7.34" y="0" class="st4 st1 st5">i</tspan><tspan x="9.48" y="0" class="st4 st1 st5">g</tspan><tspan x="15.05" y="0" class="st4 st1 st5">e</tspan><tspan x="20.69" y="0" class="st4 st1 st5">r</tspan><tspan x="23.93" y="0" class="st4 st1 st5">i</tspan><tspan x="26.06" y="0" class="st4 st1 st5">a</tspan></text>
					</g>
				</g>
			</g>
			<g>
				<text transform="matrix(1 0 0 1 388.2799 169.5576)" class="st4 st1 st5">140,000</text>
			</g>
		</g>
		<rect x="287.62" y="157.43" class="st6" width="202.22" height="15.11"/>
	</g></a><a xlink:href="http://internal-displacement.org/countries/libya" target="_blank">
	<g id="libya" class="con">
		<g>
			<polygon class="st3" points="380.86,179.22 380.86,191.41 369.46,191.41 369.46,179.22 380.86,179.22 			"/>
			<g>
				<g>
					<g>
						<text transform="matrix(1 0 0 1 342.1825 187.7151)"><tspan x="0" y="0" class="st4 st1 st5">L</tspan><tspan x="5.18" y="0" class="st4 st1 st5">i</tspan><tspan x="7.98" y="0" class="st4 st1 st5">b</tspan><tspan x="13.66" y="0" class="st4 st1 st5">y</tspan><tspan x="17.87" y="0" class="st4 st1 st5">a</tspan></text>
					</g>
				</g>
			</g>
			<g>
				<text transform="matrix(1 0 0 1 388.2777 188.217)" class="st4 st1 st5">137,000</text>
			</g>
		</g>
		<rect x="287.62" y="176.99" class="st6" width="202.22" height="15.11"/>
	</g></a><a xlink:href="http://internal-displacement.org/countries/south-sudan" target="_blank">
	<g id="south-sudan" class="con">
		<g>
			<polygon class="st3" points="380.1,198.64 380.1,209.31 369.46,209.31 369.46,198.64 380.1,198.64 			"/>
			<g>
				<g>
					<g>
						<text transform="matrix(1 0 0 1 309.0126 206.3743)"><tspan x="0" y="0" class="st4 st1 st5">S</tspan><tspan x="6" y="0" class="st4 st1 st5">o</tspan><tspan x="11.76" y="0" class="st4 st1 st5">u</tspan><tspan x="17.34" y="0" class="st4 st1 st5">t</tspan><tspan x="20.59" y="0" class="st4 st1 st5">h</tspan><tspan x="26.17" y="0" class="st4 st1 st5"> </tspan><tspan x="28.39" y="0" class="st4 st1 st5">Sud</tspan><tspan x="45.68" y="0" class="st4 st1 st5">a</tspan><tspan x="51" y="0" class="st4 st1 st5">n</tspan></text>
					</g>
				</g>
			</g>
			<g>
				<text transform="matrix(1 0 0 1 388.2774 206.8767)" class="st4 st1 st5">135,000</text>
			</g>
		</g>
		<rect x="287.62" y="195.66" class="st6" width="202.22" height="15.11"/>
	</g></a>
	</g>
	
	<script type='application/ecmascript'>
  <![CDATA[
      
      
      if (!Array.from) {
  Array.from = (function () {
    var toStr = Object.prototype.toString;
    var isCallable = function (fn) {
      return typeof fn === 'function' || toStr.call(fn) === '[object Function]';
    };
    var toInteger = function (value) {
      var number = Number(value);
      if (isNaN(number)) { return 0; }
      if (number === 0 || !isFinite(number)) { return number; }
      return (number > 0 ? 1 : -1) * Math.floor(Math.abs(number));
    };
    var maxSafeInteger = Math.pow(2, 53) - 1;
    var toLength = function (value) {
      var len = toInteger(value);
      return Math.min(Math.max(len, 0), maxSafeInteger);
    };

    // The length property of the from method is 1.
    return function from(arrayLike/*, mapFn, thisArg */) {
      // 1. Let C be the this value.
      var C = this;

      // 2. Let items be ToObject(arrayLike).
      var items = Object(arrayLike);

      // 3. ReturnIfAbrupt(items).
      if (arrayLike == null) {
        throw new TypeError("Array.from requires an array-like object - not null or undefined");
      }

      // 4. If mapfn is undefined, then let mapping be false.
      var mapFn = arguments.length > 1 ? arguments[1] : void undefined;
      var T;
      if (typeof mapFn !== 'undefined') {
        // 5. else
        // 5. a If IsCallable(mapfn) is false, throw a TypeError exception.
        if (!isCallable(mapFn)) {
          throw new TypeError('Array.from: when provided, the second argument must be a function');
        }

        // 5. b. If thisArg was supplied, let T be thisArg; else let T be undefined.
        if (arguments.length > 2) {
          T = arguments[2];
        }
      }

      // 10. Let lenValue be Get(items, "length").
      // 11. Let len be ToLength(lenValue).
      var len = toLength(items.length);

      // 13. If IsConstructor(C) is true, then
      // 13. a. Let A be the result of calling the [[Construct]] internal method of C with an argument list containing the single item len.
      // 14. a. Else, Let A be ArrayCreate(len).
      var A = isCallable(C) ? Object(new C(len)) : new Array(len);

      // 16. Let k be 0.
      var k = 0;
      // 17. Repeat, while k < len… (also steps a - h)
      var kValue;
      while (k < len) {
        kValue = items[k];
        if (mapFn) {
          A[k] = typeof T === 'undefined' ? mapFn(kValue, k) : mapFn.call(T, kValue, k);
        } else {
          A[k] = kValue;
        }
        k += 1;
      }
      // 18. Let putStatus be Put(A, "length", len, true).
      A.length = len;
      // 20. Return A.
      return A;
    };
  }());
}



    var disasterbars = Array.from(document.getElementsByClassName("dis"));
    var conflictsbars = Array.from(document.getElementsByClassName("con"));
    
    function highlightdisaster(s) {
        disasterbars.forEach(function(d) {
            if (d == s) {
                d.style.opacity=1;
            } else {
                d.style.opacity=0.3;
            }
        })
    }
function highlightconflict(s) {
        conflictsbars.forEach(function(c) {
            if (c == s) {
                c.style.opacity=1;
            } else {
                c.style.opacity=0.3;
            }
        })
    }


	
    function reset() {
        disasterbars.forEach(function(d) {
            d.style.opacity=1;
           
        });
		conflictsbars.forEach(function(c) {
            c.style.opacity=1;
           
        })
    }
  	function initSVG() {
  	    disasterbars.forEach(function(d){
  	        d.addEventListener("mouseover", function() {
            highlightdisaster(d);
  	        });
  	        d.addEventListener("mouseout", function() {
            reset();
  	        });
			d.addEventListener("click", function(evt){
				//parent.openWindow("http://dev.internal-displacement.org/countries/"+this.id);
			})
  	    });

conflictsbars.forEach(function(c){
  	        c.addEventListener("mouseover", function() {
            highlightconflict(c);
  	        });
  	        c.addEventListener("mouseout", function() {
            reset();
  	        });
  	    });


  	    
 		
 	};
 	
 	
 	
 	


  ]]>
</script>
</svg>
