<?xml version="1.0" encoding="utf-8"?>
<!-- Generator: Adobe Illustrator 23.0.0, SVG Export Plug-In . SVG Version: 6.00 Build 0)  -->
<svg version="1.1" xmlns="http://www.w3.org/2000/svg" xmlns:xlink="http://www.w3.org/1999/xlink" x="0px" y="0px"
	 viewBox="0 0 645.83 453.8" style="enable-background:new 0 0 645.83 453.8;" xml:space="preserve" onload="initSVG();">
<style type="text/css">
	@import url('https://fonts.googleapis.com/css?family=Roboto');
	.events,.desc {
	transition: opacity 0.3s ease;
	}
	.desc {opacity:0}
	.st0{display:none;}
	.st1{display:inline;}
	.st2{opacity:0.749;fill-rule:evenodd;clip-rule:evenodd;fill:#058BCA;stroke:#FFFFFF;stroke-width:0.25;stroke-miterlimit:10;}
	.st3{fill:#6A6664;}
	.st4{font-family:'Roboto';}
	.st5{font-size:10px;}
	.st6{fill:#058BCA;}
	.st7{font-family:'Roboto';}
	.st8{font-size:7px;}
	.st9{fill:none;stroke:#D0CECD;stroke-linecap:round;stroke-linejoin:round;}
	.st10{fill:none;stroke:#D0CECD;stroke-linecap:round;stroke-linejoin:round;stroke-dasharray:0,1.9404;}
	.st11{fill:none;stroke:#D0CECD;stroke-miterlimit:10;}
	.st12{fill:#D0CECD;}
	.st13{opacity:0.5;}
	.st14{opacity:0.749;fill-rule:evenodd;clip-rule:evenodd;fill:#A3C2D6;stroke:#12100B;stroke-width:0.25;stroke-miterlimit:10;}
	.st15{fill:none;stroke:#6A6764;stroke-width:0.25;stroke-miterlimit:10;}
	.st16{clip-path:url(#SVGID_4_);}
	.st17{fill:#A3C2D6;}
	.st18{fill:#6DA4AA;}
	.st19{fill:#12100B;}
	.st20{font-size:8px;}
	.st21{opacity:0.3;fill-rule:evenodd;clip-rule:evenodd;fill:#058BCA;stroke:#12100B;stroke-width:0.25;stroke-miterlimit:10;}
	.st22{clip-path:url(#SVGID_6_);}
	.st23{opacity:0.749;}
	.st24{opacity:0.749;fill-rule:evenodd;clip-rule:evenodd;fill:#058BCA;stroke:#12100B;stroke-width:0.25;stroke-miterlimit:10;}
	.st25{clip-path:url(#SVGID_8_);}
	.st26{clip-path:url(#SVGID_10_);}
	.st27{clip-path:url(#SVGID_12_);}
	.st28{clip-path:url(#SVGID_14_);}
	.st29{clip-path:url(#SVGID_16_);}
	.st30{clip-path:url(#SVGID_18_);}
	.st31{opacity:0.749;fill-rule:evenodd;clip-rule:evenodd;fill:#FCC837;stroke:#BAB9B9;stroke-width:0.25;stroke-miterlimit:10;}
	.st32{clip-path:url(#SVGID_20_);}
	.st33{fill:#FCC837;}
	.st34{fill:#FDC543;}
	.st35{opacity:0.749;fill-rule:evenodd;clip-rule:evenodd;fill:#FDC543;stroke:#12100B;stroke-width:0.1343;stroke-miterlimit:10;}
</style>
<g id="axis">
	<g>
		<g>
			<defs>
				<rect id="SVGID_1_" x="29.6" y="30.52" width="536.32" height="274.56"/>
			</defs>
			<clipPath id="SVGID_2_">
				<use xlink:href="#SVGID_1_"  style="display:none;overflow:visible;"/>
			</clipPath>
			
				<use xlink:href="#SVGID_1_"  style="display:none;overflow:visible;fill-rule:evenodd;clip-rule:evenodd;fill:none;stroke:#12100B;stroke-miterlimit:10;"/>
		</g>
	</g>
	<g id="_x39_" class="st0">
		<g class="st1">
			<path class="st2" d="M422.05,254.19c0-6.55,5.31-11.85,11.85-11.85c6.55,0,11.85,5.31,11.85,11.85s-5.31,11.85-11.85,11.85
				C427.35,266.04,422.05,260.74,422.05,254.19L422.05,254.19z"/>
		</g>
		<g class="st1">
			<g>
				<g>
					<text transform="matrix(1 0 0 1 446.7677 255.0849)"><tspan x="0" y="0" class="st3 st4 st5">I</tspan><tspan x="2.21" y="0" class="st3 st4 st5">nd</tspan><tspan x="13.33" y="0" class="st3 st4 st5">ia</tspan><tspan x="20.47" y="0" class="st3 st4 st5">:</tspan><tspan x="23.32" y="0" class="st3 st4 st5"> </tspan><tspan x="26.09" y="0" class="st3 st4 st5">T</tspan><tspan x="30.72" y="0" class="st3 st4 st5">r</tspan><tspan x="33.82" y="0" class="st3 st4 st5">o</tspan><tspan x="39.36" y="0" class="st3 st4 st5">p</tspan><tspan x="44.92" y="0" class="st3 st4 st5">i</tspan><tspan x="47.1" y="0" class="st3 st4 st5">c</tspan><tspan x="51.56" y="0" class="st3 st4 st5">al</tspan><tspan x="58.7" y="0" class="st3 st4 st5"> </tspan><tspan x="61.47" y="0" class="st3 st4 st5">C</tspan><tspan x="68.06" y="0" class="st3 st4 st5">y</tspan><tspan x="72.23" y="0" class="st3 st4 st5">c</tspan><tspan x="76.69" y="0" class="st3 st4 st5">l</tspan><tspan x="78.87" y="0" class="st3 st4 st5">o</tspan><tspan x="84.41" y="0" class="st3 st4 st5">n</tspan><tspan x="89.97" y="0" class="st3 st4 st5">e</tspan><tspan x="94.99" y="0" class="st3 st4 st5"> </tspan><tspan x="98" y="0" class="st3 st4 st5">V</tspan><tspan x="103.69" y="0" class="st3 st4 st5">a</tspan><tspan x="108.4" y="0" class="st3 st4 st5">y</tspan><tspan x="112.82" y="0" class="st3 st4 st5">u </tspan></text>
				</g>
			</g>
		</g>
	</g>
	<g id="_x38_" class="st0">
		<g class="st1">
			<path class="st2" d="M319.77,254.19c0-22.68,18.43-41.06,41.17-41.06c22.74,0,41.17,18.38,41.17,41.06
				c0,22.68-18.43,41.06-41.17,41.06C338.2,295.25,319.77,276.87,319.77,254.19L319.77,254.19z"/>
		</g>
		<g class="st1">
			<text transform="matrix(1 0 0 1 403.0343 255.0605)"><tspan x="0" y="0" class="st3 st4 st5">I</tspan><tspan x="2.21" y="0" class="st3 st4 st5">nd</tspan><tspan x="13.33" y="0" class="st3 st4 st5">ia</tspan><tspan x="20.47" y="0" class="st3 st4 st5">;</tspan><tspan x="23.32" y="0" class="st3 st4 st5"> </tspan><tspan x="26.09" y="0" class="st3 st4 st5">B</tspan><tspan x="31.71" y="0" class="st3 st4 st5">a</tspan><tspan x="36.67" y="0" class="st3 st4 st5">n</tspan><tspan x="42.23" y="0" class="st3 st4 st5">g</tspan><tspan x="47.83" y="0" class="st3 st4 st5">la</tspan><tspan x="54.97" y="0" class="st3 st4 st5">d</tspan><tspan x="60.53" y="0" class="st3 st4 st5">e</tspan><tspan x="65.55" y="0" class="st3 st4 st5">s</tspan><tspan x="69.52" y="0" class="st3 st4 st5">h</tspan><tspan x="75.08" y="0" class="st3 st4 st5">:</tspan><tspan x="77.93" y="0" class="st3 st4 st5"> </tspan><tspan x="80.7" y="0" class="st3 st4 st5">C</tspan><tspan x="87.29" y="0" class="st3 st4 st5">y</tspan><tspan x="91.46" y="0" class="st3 st4 st5">c</tspan><tspan x="95.92" y="0" class="st3 st4 st5">l</tspan><tspan x="98.1" y="0" class="st3 st4 st5">o</tspan><tspan x="103.64" y="0" class="st3 st4 st5">n</tspan><tspan x="109.2" y="0" class="st3 st4 st5">e</tspan><tspan x="114.22" y="0" class="st3 st4 st5"> </tspan><tspan x="117.23" y="0" class="st3 st4 st5">F</tspan><tspan x="121.33" y="0" class="st3 st4 st5">a</tspan><tspan x="126.29" y="0" class="st3 st4 st5">n</tspan><tspan x="131.85" y="0" class="st3 st4 st5">i</tspan><tspan x="134.03" y="0" class="st3 st4 st5"> </tspan></text>
		</g>
	</g>
	<text transform="matrix(1 0 0 1 74.4591 402.5369)"><tspan x="0" y="0" class="st6 st7 st5">*</tspan><tspan x="4.31" y="0" class="st3 st7 st8">The estimates represent the number of new displacements reported between the 1st of January and the 30th of June 2019. </tspan></text>
	<g>
		<g>
			<g>
				<line class="st9" x1="493.21" y1="352.66" x2="493.21" y2="352.66"/>
				<line class="st10" x1="495.15" y1="352.66" x2="521.35" y2="352.66"/>
				<line class="st9" x1="522.32" y1="352.66" x2="522.32" y2="352.66"/>
			</g>
		</g>
		<line class="st11" x1="493.53" y1="352.66" x2="493.53" y2="358.68"/>
		<polyline class="st11" points="85.96,360.57 85.96,352.66 493.53,352.66 		"/>
		<text transform="matrix(1 0 0 1 81.1634 370.3258)"><tspan x="0" y="0" class="st12 st7 st5">01</tspan><tspan x="-2.62" y="9" class="st12 st7 st5">Jan</tspan><tspan x="-5.62" y="18" class="st12 st7 st5">2019</tspan></text>
		<text transform="matrix(1 0 0 1 490.1357 370.3256)"><tspan x="0" y="0" class="st12 st7 st5">30</tspan><tspan x="-2.66" y="9" class="st12 st7 st5">Jun</tspan><tspan x="-5.62" y="18" class="st12 st7 st5">2019</tspan></text>
	</g>
</g>
<g id="data">
	<g class="event">
		<g id="_x34__7_" class="st13">
			<g>
				<g>
					<path class="st14" d="M209.59,208.73c0-79.45,64.41-143.86,143.86-143.86s143.86,64.41,143.86,143.86
						c0,79.45-64.41,143.86-143.86,143.86S209.59,288.18,209.59,208.73L209.59,208.73z"/>
				</g>
			</g>
		</g>
		<g>
			<line class="st15" x1="352.73" y1="64.88" x2="352.73" y2="15.77"/>
			<g>
				<g>
					<defs>
						<path id="SVGID_3_" d="M352.97,9.13c4.41,0,7.96,3.69,7.73,8.16c-0.2,3.91-3.41,7.11-7.31,7.31
							c-4.46,0.23-8.16-3.32-8.16-7.73C345.23,12.59,348.69,9.13,352.97,9.13L352.97,9.13"/>
					</defs>
					<use xlink:href="#SVGID_3_"  style="overflow:visible;fill:#FFFFFF;"/>
					<clipPath id="SVGID_4_">
						<use xlink:href="#SVGID_3_"  style="overflow:visible;"/>
					</clipPath>
					<g class="st16">
						<g>
							<path class="st17" d="M353.14,13.88c1.25,0,2.23,0.22,2.94,0.67c0.71,0.44,1.25,0.93,1.6,1.47c0.36,0.53,0.62,1.24,0.8,2.13
								c-0.1-0.42-0.25-0.78-0.44-1.07c-0.2-0.29-0.48-0.59-0.87-0.9s-0.9-0.56-1.56-0.75c0.06,0.11,0.11,0.22,0.16,0.33
								c0.05,0.12,0.08,0.23,0.12,0.36c0.03,0.12,0.05,0.25,0.07,0.37c0.02,0.13,0.02,0.25,0.02,0.39c0,0.02,0,0.03,0,0.05
								c0,0.02,0,0.03,0,0.05c0,0.02,0,0.03,0,0.05c0,0.02,0,0.03,0,0.05c0,1.25-0.22,2.23-0.67,2.94c-0.44,0.71-0.93,1.25-1.47,1.6
								c-0.53,0.36-1.24,0.62-2.13,0.8c0.42-0.1,0.78-0.25,1.07-0.44c0.29-0.2,0.59-0.48,0.9-0.87s0.56-0.9,0.75-1.56
								c-0.11,0.06-0.22,0.11-0.33,0.16c-0.11,0.05-0.23,0.08-0.36,0.12c-0.12,0.03-0.25,0.05-0.37,0.07
								c-0.13,0.02-0.25,0.02-0.39,0.02c-0.02,0-0.03,0-0.05,0c-0.02,0-0.03,0-0.05,0c-0.02,0-0.03,0-0.05,0c-0.02,0-0.03,0-0.05,0
								c-1.25,0-2.23-0.22-2.94-0.67c-0.71-0.44-1.25-0.93-1.6-1.47c-0.36-0.53-0.62-1.24-0.8-2.13c0.1,0.42,0.25,0.78,0.44,1.07
								c0.2,0.29,0.48,0.59,0.87,0.9c0.38,0.31,0.9,0.56,1.56,0.75c-0.06-0.11-0.11-0.22-0.16-0.33c-0.05-0.11-0.08-0.23-0.12-0.36
								s-0.05-0.25-0.07-0.37c-0.02-0.13-0.02-0.25-0.02-0.38c0-0.02,0-0.03,0-0.05c0-0.02,0-0.03,0-0.05c0-0.02,0-0.03,0-0.05
								c0-0.02,0-0.03,0-0.05c0-1.25,0.22-2.23,0.67-2.94c0.44-0.71,0.93-1.25,1.47-1.6c0.53-0.36,1.24-0.62,2.13-0.8
								c-0.42,0.1-0.78,0.25-1.07,0.44c-0.29,0.2-0.59,0.48-0.9,0.87s-0.56,0.9-0.75,1.56c0.11-0.06,0.22-0.11,0.33-0.16
								c0.11-0.05,0.23-0.08,0.36-0.12c0.12-0.03,0.25-0.05,0.37-0.07c0.13-0.02,0.25-0.02,0.39-0.02c0.02,0,0.03,0,0.05,0
								s0.03,0,0.05,0c0.02,0,0.03,0,0.05,0C353.11,13.88,353.12,13.88,353.14,13.88z"/>
						</g>
					</g>
					<use xlink:href="#SVGID_3_"  style="overflow:visible;fill:none;stroke:#008ECA;stroke-width:0.4359;stroke-miterlimit:10;"/>
				</g>
			</g>
		</g>
		<g class="desc">
			<g>
				<g>
					<text transform="matrix(1 0 0 1 365.4463 16.0967)"><tspan x="0" y="0" class="st18 st7 st5">02 May</tspan><tspan x="0" y="9" class="st19 st7 st5">Cyclone Fani</tspan><tspan x="0" y="18" class="st3 st7 st8">India and</tspan><tspan x="0" y="27" class="st3 st7 st8">Bangladesh</tspan><tspan x="0" y="36" class="st6 st7 st20">3,475,000</tspan></text>
				</g>
			</g>
		</g>
	</g>
	<g class="event">
		<path class="st21" d="M82.78,342.57c0-1.67,1.35-3.03,3.03-3.03c1.67,0,3.03,1.35,3.03,3.03s-1.35,3.03-3.03,3.03
			C84.14,345.59,82.78,344.24,82.78,342.57L82.78,342.57z"/>
		<g>
			<line class="st15" x1="85.64" y1="339.44" x2="85.64" y2="176.23"/>
			<g>
				<g>
					<defs>
						<path id="SVGID_5_" d="M85.64,167.87c4.41,0,7.96,3.69,7.73,8.16c-0.2,3.91-3.41,7.11-7.31,7.31
							c-4.46,0.23-8.16-3.32-8.16-7.73C77.9,171.33,81.37,167.87,85.64,167.87L85.64,167.87"/>
					</defs>
					<use xlink:href="#SVGID_5_"  style="overflow:visible;fill:#FFFFFF;"/>
					<clipPath id="SVGID_6_">
						<use xlink:href="#SVGID_5_"  style="overflow:visible;"/>
					</clipPath>
					<g class="st22">
						<path class="st6" d="M90.81,177.53h2.21v2.21h-1.1c-0.06-0.02-0.13-0.04-0.2-0.08c-0.07-0.04-0.14-0.09-0.21-0.15
							c-0.07-0.06-0.13-0.13-0.19-0.22c-0.06-0.08-0.1-0.18-0.13-0.29c-0.03-0.08-0.06-0.19-0.08-0.3s-0.03-0.23-0.01-0.34
							c0.02-0.11,0.06-0.21,0.13-0.29c0.07-0.08,0.18-0.13,0.34-0.15c-0.18-0.17-0.34-0.27-0.48-0.3c-0.14-0.03-0.3-0.01-0.48,0.07
							s-0.35,0.29-0.52,0.61c-0.13,0.25-0.27,0.46-0.41,0.64s-0.29,0.33-0.43,0.45c-0.14,0.12-0.26,0.21-0.37,0.27
							c-0.11,0.06-0.2,0.1-0.26,0.11h-0.37c-0.06-0.02-0.13-0.04-0.2-0.08c-0.07-0.04-0.14-0.09-0.21-0.15
							c-0.07-0.06-0.13-0.13-0.19-0.22c-0.06-0.08-0.1-0.18-0.13-0.29c-0.03-0.08-0.06-0.19-0.08-0.3s-0.03-0.23-0.01-0.34
							c0.02-0.11,0.06-0.21,0.13-0.29c0.07-0.08,0.18-0.13,0.35-0.15c-0.18-0.17-0.35-0.27-0.49-0.3c-0.14-0.03-0.3-0.01-0.47,0.07
							s-0.34,0.29-0.51,0.61c-0.13,0.25-0.25,0.46-0.36,0.64c-0.11,0.18-0.21,0.33-0.3,0.45c-0.09,0.12-0.17,0.21-0.25,0.27
							c-0.07,0.06-0.14,0.1-0.2,0.11h-0.37c-0.06-0.02-0.13-0.04-0.2-0.08c-0.07-0.04-0.14-0.09-0.21-0.15
							c-0.07-0.06-0.13-0.13-0.19-0.22c-0.06-0.08-0.1-0.18-0.13-0.29c-0.03-0.08-0.06-0.19-0.08-0.3
							c-0.02-0.12-0.03-0.23-0.01-0.34c0.02-0.11,0.06-0.21,0.13-0.29c0.07-0.08,0.18-0.13,0.35-0.15c-0.18-0.17-0.35-0.27-0.49-0.3
							c-0.14-0.03-0.3-0.01-0.47,0.07s-0.34,0.29-0.51,0.61c-0.13,0.25-0.25,0.46-0.36,0.64c-0.11,0.18-0.21,0.33-0.3,0.45
							c-0.09,0.12-0.17,0.21-0.25,0.27c-0.07,0.06-0.14,0.1-0.2,0.11h-0.37c-0.06-0.02-0.13-0.04-0.2-0.08
							c-0.07-0.04-0.14-0.09-0.21-0.15c-0.07-0.06-0.13-0.13-0.19-0.22c-0.06-0.08-0.1-0.18-0.13-0.29
							c-0.03-0.08-0.06-0.19-0.08-0.3c-0.02-0.12-0.03-0.23-0.02-0.34c0.01-0.11,0.05-0.21,0.12-0.29s0.18-0.13,0.34-0.15
							c-0.18-0.17-0.35-0.27-0.49-0.3c-0.14-0.03-0.3-0.01-0.47,0.07c-0.17,0.08-0.34,0.29-0.51,0.61
							c-0.13,0.25-0.27,0.46-0.41,0.64c-0.15,0.18-0.29,0.33-0.43,0.45c-0.14,0.12-0.26,0.21-0.37,0.27
							c-0.11,0.06-0.2,0.1-0.26,0.12v-2.21c0.06-0.02,0.15-0.05,0.26-0.12c0.11-0.06,0.24-0.15,0.37-0.27
							c0.14-0.12,0.28-0.27,0.43-0.45c0.15-0.18,0.28-0.39,0.41-0.64c0.17-0.33,0.34-0.53,0.51-0.62c0.17-0.08,0.33-0.1,0.47-0.07
							c0.14,0.03,0.3,0.14,0.49,0.3c-0.16,0.02-0.28,0.06-0.34,0.15s-0.11,0.18-0.12,0.29c-0.01,0.11-0.01,0.23,0.02,0.34
							c0.02,0.12,0.05,0.22,0.08,0.3c0.03,0.11,0.07,0.2,0.13,0.29c0.06,0.08,0.12,0.16,0.19,0.22c0.07,0.06,0.14,0.11,0.21,0.15
							c0.07,0.04,0.14,0.07,0.2,0.08h0.37c0.06-0.02,0.13-0.05,0.2-0.12c0.07-0.06,0.15-0.15,0.25-0.27
							c0.09-0.12,0.19-0.27,0.3-0.45c0.11-0.18,0.23-0.39,0.36-0.64c0.17-0.33,0.34-0.53,0.51-0.62s0.33-0.1,0.47-0.07
							s0.3,0.14,0.49,0.3c-0.16,0.02-0.28,0.06-0.35,0.15c-0.07,0.08-0.11,0.18-0.13,0.29c-0.02,0.11-0.01,0.23,0.01,0.34
							c0.02,0.12,0.05,0.22,0.08,0.3c0.03,0.11,0.07,0.2,0.13,0.29c0.06,0.08,0.12,0.16,0.19,0.22s0.14,0.11,0.21,0.15
							c0.07,0.04,0.14,0.06,0.2,0.08h0.37v-4.05l-0.37,0.37l-0.37-0.37l3.49-2.94l3.49,2.94l-0.37,0.37l-0.37-0.37v4.05
							L90.81,177.53z M93.04,183.47v-1.47h-1.1c-0.06-0.02-0.13-0.04-0.2-0.08c-0.07-0.04-0.14-0.09-0.21-0.15
							c-0.07-0.06-0.13-0.13-0.19-0.22c-0.06-0.08-0.1-0.18-0.13-0.29c-0.03-0.08-0.06-0.19-0.08-0.3s-0.03-0.23-0.01-0.34
							c0.02-0.11,0.06-0.21,0.13-0.29c0.07-0.08,0.18-0.13,0.34-0.15c-0.18-0.17-0.34-0.27-0.48-0.3c-0.14-0.03-0.3-0.01-0.48,0.07
							c-0.18,0.08-0.35,0.29-0.52,0.61c-0.13,0.25-0.27,0.46-0.41,0.64c-0.15,0.18-0.29,0.33-0.43,0.45
							c-0.14,0.12-0.26,0.21-0.37,0.27c-0.11,0.06-0.2,0.1-0.26,0.11h-0.37c-0.06-0.02-0.13-0.04-0.2-0.08
							c-0.07-0.04-0.14-0.09-0.21-0.15c-0.07-0.06-0.13-0.13-0.19-0.22c-0.06-0.08-0.1-0.18-0.13-0.29
							c-0.03-0.08-0.06-0.19-0.08-0.3s-0.03-0.23-0.01-0.34c0.02-0.11,0.06-0.21,0.13-0.29c0.07-0.08,0.18-0.13,0.35-0.15
							c-0.18-0.17-0.35-0.27-0.49-0.3c-0.14-0.03-0.3-0.01-0.47,0.07s-0.34,0.29-0.51,0.61c-0.13,0.25-0.25,0.46-0.36,0.64
							c-0.11,0.18-0.21,0.33-0.3,0.45c-0.09,0.12-0.17,0.21-0.25,0.27c-0.07,0.06-0.14,0.1-0.2,0.11h-0.37
							c-0.06-0.02-0.13-0.04-0.2-0.08c-0.07-0.04-0.14-0.09-0.21-0.15c-0.07-0.06-0.13-0.13-0.19-0.22
							c-0.06-0.08-0.1-0.18-0.13-0.29c-0.03-0.08-0.06-0.19-0.08-0.3s-0.03-0.23-0.01-0.34c0.02-0.11,0.06-0.21,0.13-0.29
							c0.07-0.08,0.18-0.13,0.35-0.15c-0.18-0.17-0.35-0.27-0.49-0.3c-0.14-0.03-0.3-0.01-0.47,0.07s-0.34,0.29-0.51,0.61
							c-0.13,0.25-0.25,0.46-0.36,0.64c-0.11,0.18-0.21,0.33-0.3,0.45c-0.09,0.12-0.17,0.21-0.25,0.27c-0.07,0.06-0.14,0.1-0.2,0.11
							h-0.37c-0.06-0.02-0.13-0.04-0.2-0.08c-0.07-0.04-0.14-0.09-0.21-0.15c-0.07-0.06-0.13-0.13-0.19-0.22
							c-0.06-0.08-0.1-0.18-0.13-0.29c-0.03-0.08-0.06-0.19-0.08-0.3s-0.03-0.23-0.02-0.34c0.01-0.11,0.05-0.21,0.12-0.29
							c0.07-0.08,0.18-0.13,0.34-0.15c-0.18-0.17-0.35-0.27-0.49-0.3c-0.14-0.03-0.3-0.01-0.47,0.07c-0.17,0.08-0.34,0.29-0.51,0.61
							c-0.13,0.25-0.27,0.46-0.41,0.64s-0.29,0.33-0.43,0.45c-0.14,0.12-0.26,0.21-0.37,0.27c-0.11,0.06-0.2,0.1-0.26,0.11v1.47
							h14.71L93.04,183.47z"/>
					</g>
					<use xlink:href="#SVGID_5_"  style="overflow:visible;fill:none;stroke:#008ECA;stroke-width:0.4359;stroke-miterlimit:10;"/>
				</g>
			</g>
		</g>
		<g class="desc">
			<g class="st23">
				<text transform="matrix(1 0 0 1 43.5823 176.1669)"><tspan x="0" y="0" class="st18 st7 st5">01 Jan</tspan><tspan x="0.02" y="9" class="st19 st7 st5">Floods</tspan><tspan x="-15.43" y="18" class="st3 st7 st8">(Country-wide)</tspan><tspan x="7.8" y="27" class="st3 st7 st8">Bolivia </tspan><tspan x="1.84" y="36" class="st6 st7 st5">*</tspan><tspan x="6.15" y="36" class="st6 st7 st20">73,000</tspan></text>
			</g>
		</g>
	</g>
	<g class="event">
		<g class="st13">
			<path class="st24" d="M124.73,340.19c0-6.85,5.55-12.4,12.4-12.4c6.85,0,12.4,5.55,12.4,12.4c0,6.85-5.55,12.4-12.4,12.4
				C130.28,352.59,124.73,347.04,124.73,340.19L124.73,340.19z"/>
		</g>
		<g>
			<line class="st15" x1="136.26" y1="327.72" x2="136.26" y2="255.46"/>
			<g>
				<defs>
					<path id="SVGID_7_" d="M136.26,252.78c4.41,0,7.96,3.69,7.73,8.16c-0.2,3.91-3.41,7.11-7.31,7.31
						c-4.46,0.23-8.16-3.32-8.16-7.73C128.52,256.24,131.98,252.78,136.26,252.78L136.26,252.78"/>
				</defs>
				<use xlink:href="#SVGID_7_"  style="overflow:visible;fill:#FFFFFF;"/>
				<clipPath id="SVGID_8_">
					<use xlink:href="#SVGID_7_"  style="overflow:visible;"/>
				</clipPath>
				<g class="st25">
					<g>
						<path class="st6" d="M141.43,262.44h2.21v2.21h-1.1c-0.06-0.02-0.13-0.04-0.2-0.08c-0.07-0.04-0.14-0.09-0.21-0.15
							c-0.07-0.06-0.13-0.13-0.19-0.22c-0.06-0.08-0.1-0.18-0.13-0.29c-0.03-0.08-0.06-0.19-0.08-0.3s-0.03-0.23-0.01-0.34
							c0.02-0.11,0.06-0.21,0.13-0.29c0.07-0.08,0.18-0.13,0.34-0.15c-0.18-0.17-0.34-0.27-0.48-0.3c-0.14-0.03-0.3-0.01-0.48,0.07
							s-0.35,0.29-0.52,0.61c-0.13,0.25-0.27,0.46-0.41,0.64s-0.29,0.33-0.43,0.45c-0.14,0.12-0.26,0.21-0.37,0.27
							c-0.11,0.06-0.2,0.1-0.26,0.11h-0.37c-0.06-0.02-0.13-0.04-0.2-0.08c-0.07-0.04-0.14-0.09-0.21-0.15
							c-0.07-0.06-0.13-0.13-0.19-0.22c-0.06-0.08-0.1-0.18-0.13-0.29c-0.03-0.08-0.06-0.19-0.08-0.3s-0.03-0.23-0.01-0.34
							c0.02-0.11,0.06-0.21,0.13-0.29c0.07-0.08,0.18-0.13,0.35-0.15c-0.18-0.17-0.35-0.27-0.49-0.3c-0.14-0.03-0.3-0.01-0.47,0.07
							s-0.34,0.29-0.51,0.61c-0.13,0.25-0.25,0.46-0.36,0.64c-0.11,0.18-0.21,0.33-0.3,0.45c-0.09,0.12-0.17,0.21-0.25,0.27
							c-0.07,0.06-0.14,0.1-0.2,0.11h-0.37c-0.06-0.02-0.13-0.04-0.2-0.08c-0.07-0.04-0.14-0.09-0.21-0.15
							c-0.07-0.06-0.13-0.13-0.19-0.22c-0.06-0.08-0.1-0.18-0.13-0.29c-0.03-0.08-0.06-0.19-0.08-0.3
							c-0.02-0.12-0.03-0.23-0.01-0.34c0.02-0.11,0.06-0.21,0.13-0.29c0.07-0.08,0.18-0.13,0.35-0.15c-0.18-0.17-0.35-0.27-0.49-0.3
							c-0.14-0.03-0.3-0.01-0.47,0.07s-0.34,0.29-0.51,0.61c-0.13,0.25-0.25,0.46-0.36,0.64c-0.11,0.18-0.21,0.33-0.3,0.45
							c-0.09,0.12-0.17,0.21-0.25,0.27c-0.07,0.06-0.14,0.1-0.2,0.11h-0.37c-0.06-0.02-0.13-0.04-0.2-0.08
							c-0.07-0.04-0.14-0.09-0.21-0.15c-0.07-0.06-0.13-0.13-0.19-0.22c-0.06-0.08-0.1-0.18-0.13-0.29
							c-0.03-0.08-0.06-0.19-0.08-0.3c-0.02-0.12-0.03-0.23-0.02-0.34c0.01-0.11,0.05-0.21,0.12-0.29s0.18-0.13,0.34-0.15
							c-0.18-0.17-0.35-0.27-0.49-0.3c-0.14-0.03-0.3-0.01-0.47,0.07c-0.17,0.08-0.34,0.29-0.51,0.61
							c-0.13,0.25-0.27,0.46-0.41,0.64c-0.15,0.18-0.29,0.33-0.43,0.45c-0.14,0.12-0.26,0.21-0.37,0.27
							c-0.11,0.06-0.2,0.1-0.26,0.12v-2.21c0.06-0.02,0.15-0.05,0.26-0.12c0.11-0.06,0.24-0.15,0.37-0.27
							c0.14-0.12,0.28-0.27,0.43-0.45c0.15-0.18,0.28-0.39,0.41-0.64c0.17-0.33,0.34-0.53,0.51-0.62c0.17-0.08,0.33-0.1,0.47-0.07
							c0.14,0.03,0.3,0.14,0.49,0.3c-0.16,0.02-0.28,0.06-0.34,0.15s-0.11,0.18-0.12,0.29c-0.01,0.11-0.01,0.23,0.02,0.34
							c0.02,0.12,0.05,0.22,0.08,0.3c0.03,0.11,0.07,0.2,0.13,0.29c0.06,0.08,0.12,0.16,0.19,0.22c0.07,0.06,0.14,0.11,0.21,0.15
							c0.07,0.04,0.14,0.07,0.2,0.08h0.37c0.06-0.02,0.13-0.05,0.2-0.12c0.07-0.06,0.15-0.15,0.25-0.27
							c0.09-0.12,0.19-0.27,0.3-0.45c0.11-0.18,0.23-0.39,0.36-0.64c0.17-0.33,0.34-0.53,0.51-0.62s0.33-0.1,0.47-0.07
							s0.3,0.14,0.49,0.3c-0.16,0.02-0.28,0.06-0.35,0.15c-0.07,0.08-0.11,0.18-0.13,0.29c-0.02,0.11-0.01,0.23,0.01,0.34
							c0.02,0.12,0.05,0.22,0.08,0.3c0.03,0.11,0.07,0.2,0.13,0.29c0.06,0.08,0.12,0.16,0.19,0.22s0.14,0.11,0.21,0.15
							c0.07,0.04,0.14,0.06,0.2,0.08h0.37v-4.05l-0.37,0.37l-0.37-0.37l3.49-2.94l3.49,2.94l-0.37,0.37l-0.37-0.37v4.05
							L141.43,262.44z M143.66,268.37v-1.47h-1.1c-0.06-0.02-0.13-0.04-0.2-0.08c-0.07-0.04-0.14-0.09-0.21-0.15
							c-0.07-0.06-0.13-0.13-0.19-0.22c-0.06-0.08-0.1-0.18-0.13-0.29c-0.03-0.08-0.06-0.19-0.08-0.3s-0.03-0.23-0.01-0.34
							c0.02-0.11,0.06-0.21,0.13-0.29c0.07-0.08,0.18-0.13,0.34-0.15c-0.18-0.17-0.34-0.27-0.48-0.3c-0.14-0.03-0.3-0.01-0.48,0.07
							c-0.18,0.08-0.35,0.29-0.52,0.61c-0.13,0.25-0.27,0.46-0.41,0.64c-0.15,0.18-0.29,0.33-0.43,0.45
							c-0.14,0.12-0.26,0.21-0.37,0.27c-0.11,0.06-0.2,0.1-0.26,0.11h-0.37c-0.06-0.02-0.13-0.04-0.2-0.08
							c-0.07-0.04-0.14-0.09-0.21-0.15c-0.07-0.06-0.13-0.13-0.19-0.22c-0.06-0.08-0.1-0.18-0.13-0.29
							c-0.03-0.08-0.06-0.19-0.08-0.3s-0.03-0.23-0.01-0.34c0.02-0.11,0.06-0.21,0.13-0.29c0.07-0.08,0.18-0.13,0.35-0.15
							c-0.18-0.17-0.35-0.27-0.49-0.3c-0.14-0.03-0.3-0.01-0.47,0.07s-0.34,0.29-0.51,0.61c-0.13,0.25-0.25,0.46-0.36,0.64
							c-0.11,0.18-0.21,0.33-0.3,0.45c-0.09,0.12-0.17,0.21-0.25,0.27c-0.07,0.06-0.14,0.1-0.2,0.11h-0.37
							c-0.06-0.02-0.13-0.04-0.2-0.08c-0.07-0.04-0.14-0.09-0.21-0.15c-0.07-0.06-0.13-0.13-0.19-0.22
							c-0.06-0.08-0.1-0.18-0.13-0.29c-0.03-0.08-0.06-0.19-0.08-0.3s-0.03-0.23-0.01-0.34c0.02-0.11,0.06-0.21,0.13-0.29
							c0.07-0.08,0.18-0.13,0.35-0.15c-0.18-0.17-0.35-0.27-0.49-0.3c-0.14-0.03-0.3-0.01-0.47,0.07s-0.34,0.29-0.51,0.61
							c-0.13,0.25-0.25,0.46-0.36,0.64c-0.11,0.18-0.21,0.33-0.3,0.45c-0.09,0.12-0.17,0.21-0.25,0.27c-0.07,0.06-0.14,0.1-0.2,0.11
							h-0.37c-0.06-0.02-0.13-0.04-0.2-0.08c-0.07-0.04-0.14-0.09-0.21-0.15c-0.07-0.06-0.13-0.13-0.19-0.22
							c-0.06-0.08-0.1-0.18-0.13-0.29c-0.03-0.08-0.06-0.19-0.08-0.3s-0.03-0.23-0.02-0.34c0.01-0.11,0.05-0.21,0.12-0.29
							c0.07-0.08,0.18-0.13,0.34-0.15c-0.18-0.17-0.35-0.27-0.49-0.3c-0.14-0.03-0.3-0.01-0.47,0.07c-0.17,0.08-0.34,0.29-0.51,0.61
							c-0.13,0.25-0.27,0.46-0.41,0.64s-0.29,0.33-0.43,0.45c-0.14,0.12-0.26,0.21-0.37,0.27c-0.11,0.06-0.2,0.1-0.26,0.11v1.47
							h14.71L143.66,268.37z"/>
					</g>
				</g>
				<use xlink:href="#SVGID_7_"  style="overflow:visible;fill:none;stroke:#008ECA;stroke-width:0.4359;stroke-miterlimit:10;"/>
			</g>
		</g>
		<g class="desc">
			<g>
				<g>
					<text transform="matrix(1 0 0 1 147.6418 261.0754)"><tspan x="0" y="0" class="st18 st7 st5">26 Jan</tspan><tspan x="0" y="9" class="st19 st7 st5">Floods and</tspan><tspan x="0" y="18" class="st19 st7 st5">Landslides</tspan><tspan x="0" y="27" class="st3 st7 st8">(Davao)</tspan><tspan x="0" y="36" class="st3 st7 st8">Philippines</tspan><tspan x="0" y="45" class="st6 st7 st20">299,000</tspan><tspan x="28.52" y="45" class="st6 st7 st5"> </tspan></text>
				</g>
			</g>
		</g>
	</g>
	<g class="event">
		<g class="st13">
			<path class="st24" d="M221.8,331.84c0-11.46,9.29-20.75,20.75-20.75s20.75,9.29,20.75,20.75c0,11.46-9.29,20.75-20.75,20.75
				S221.8,343.3,221.8,331.84L221.8,331.84z"/>
		</g>
		<g>
			<line class="st15" x1="242.6" y1="310.94" x2="242.6" y2="255.46"/>
			<g>
				<g>
					<defs>
						<path id="SVGID_9_" d="M242.6,252.78c4.41,0,7.96,3.69,7.73,8.16c-0.2,3.91-3.41,7.11-7.31,7.31
							c-4.46,0.23-8.16-3.32-8.16-7.73C234.86,256.24,238.33,252.78,242.6,252.78L242.6,252.78"/>
					</defs>
					<use xlink:href="#SVGID_9_"  style="overflow:visible;fill:#FFFFFF;"/>
					<clipPath id="SVGID_10_">
						<use xlink:href="#SVGID_9_"  style="overflow:visible;"/>
					</clipPath>
					<g class="st26">
						<path class="st6" d="M247.77,262.44h2.21v2.21h-1.1c-0.06-0.02-0.13-0.04-0.2-0.08c-0.07-0.04-0.14-0.09-0.21-0.15
							c-0.07-0.06-0.13-0.13-0.19-0.22c-0.06-0.08-0.1-0.18-0.13-0.29c-0.03-0.08-0.06-0.19-0.08-0.3s-0.03-0.23-0.01-0.34
							c0.02-0.11,0.06-0.21,0.13-0.29c0.07-0.08,0.18-0.13,0.34-0.15c-0.18-0.17-0.34-0.27-0.48-0.3c-0.14-0.03-0.3-0.01-0.48,0.07
							s-0.35,0.29-0.52,0.61c-0.13,0.25-0.27,0.46-0.41,0.64s-0.29,0.33-0.43,0.45c-0.14,0.12-0.26,0.21-0.37,0.27
							c-0.11,0.06-0.2,0.1-0.26,0.11h-0.37c-0.06-0.02-0.13-0.04-0.2-0.08c-0.07-0.04-0.14-0.09-0.21-0.15
							c-0.07-0.06-0.13-0.13-0.19-0.22c-0.06-0.08-0.1-0.18-0.13-0.29c-0.03-0.08-0.06-0.19-0.08-0.3s-0.03-0.23-0.01-0.34
							c0.02-0.11,0.06-0.21,0.13-0.29c0.07-0.08,0.18-0.13,0.35-0.15c-0.18-0.17-0.35-0.27-0.49-0.3c-0.14-0.03-0.3-0.01-0.47,0.07
							s-0.34,0.29-0.51,0.61c-0.13,0.25-0.25,0.46-0.36,0.64c-0.11,0.18-0.21,0.33-0.3,0.45c-0.09,0.12-0.17,0.21-0.25,0.27
							c-0.07,0.06-0.14,0.1-0.2,0.11h-0.37c-0.06-0.02-0.13-0.04-0.2-0.08c-0.07-0.04-0.14-0.09-0.21-0.15
							c-0.07-0.06-0.13-0.13-0.19-0.22c-0.06-0.08-0.1-0.18-0.13-0.29c-0.03-0.08-0.06-0.19-0.08-0.3
							c-0.02-0.12-0.03-0.23-0.01-0.34c0.02-0.11,0.06-0.21,0.13-0.29c0.07-0.08,0.18-0.13,0.35-0.15c-0.18-0.17-0.35-0.27-0.49-0.3
							c-0.14-0.03-0.3-0.01-0.47,0.07s-0.34,0.29-0.51,0.61c-0.13,0.25-0.25,0.46-0.36,0.64c-0.11,0.18-0.21,0.33-0.3,0.45
							c-0.09,0.12-0.17,0.21-0.25,0.27c-0.07,0.06-0.14,0.1-0.2,0.11h-0.37c-0.06-0.02-0.13-0.04-0.2-0.08
							c-0.07-0.04-0.14-0.09-0.21-0.15c-0.07-0.06-0.13-0.13-0.19-0.22c-0.06-0.08-0.1-0.18-0.13-0.29
							c-0.03-0.08-0.06-0.19-0.08-0.3c-0.02-0.12-0.03-0.23-0.02-0.34c0.01-0.11,0.05-0.21,0.12-0.29s0.18-0.13,0.34-0.15
							c-0.18-0.17-0.35-0.27-0.49-0.3c-0.14-0.03-0.3-0.01-0.47,0.07c-0.17,0.08-0.34,0.29-0.51,0.61
							c-0.13,0.25-0.27,0.46-0.41,0.64c-0.15,0.18-0.29,0.33-0.43,0.45c-0.14,0.12-0.26,0.21-0.37,0.27
							c-0.11,0.06-0.2,0.1-0.26,0.12v-2.21c0.06-0.02,0.15-0.05,0.26-0.12c0.11-0.06,0.24-0.15,0.37-0.27
							c0.14-0.12,0.28-0.27,0.43-0.45c0.15-0.18,0.28-0.39,0.41-0.64c0.17-0.33,0.34-0.53,0.51-0.62c0.17-0.08,0.33-0.1,0.47-0.07
							c0.14,0.03,0.3,0.14,0.49,0.3c-0.16,0.02-0.28,0.06-0.34,0.15s-0.11,0.18-0.12,0.29c-0.01,0.11-0.01,0.23,0.02,0.34
							c0.02,0.12,0.05,0.22,0.08,0.3c0.03,0.11,0.07,0.2,0.13,0.29c0.06,0.08,0.12,0.16,0.19,0.22c0.07,0.06,0.14,0.11,0.21,0.15
							c0.07,0.04,0.14,0.07,0.2,0.08h0.37c0.06-0.02,0.13-0.05,0.2-0.12c0.07-0.06,0.15-0.15,0.25-0.27
							c0.09-0.12,0.19-0.27,0.3-0.45c0.11-0.18,0.23-0.39,0.36-0.64c0.17-0.33,0.34-0.53,0.51-0.62s0.33-0.1,0.47-0.07
							s0.3,0.14,0.49,0.3c-0.16,0.02-0.28,0.06-0.35,0.15c-0.07,0.08-0.11,0.18-0.13,0.29c-0.02,0.11-0.01,0.23,0.01,0.34
							c0.02,0.12,0.05,0.22,0.08,0.3c0.03,0.11,0.07,0.2,0.13,0.29c0.06,0.08,0.12,0.16,0.19,0.22s0.14,0.11,0.21,0.15
							c0.07,0.04,0.14,0.06,0.2,0.08h0.37v-4.05l-0.37,0.37l-0.37-0.37l3.49-2.94l3.49,2.94l-0.37,0.37l-0.37-0.37v4.05
							L247.77,262.44z M250,268.37v-1.47h-1.1c-0.06-0.02-0.13-0.04-0.2-0.08c-0.07-0.04-0.14-0.09-0.21-0.15
							c-0.07-0.06-0.13-0.13-0.19-0.22c-0.06-0.08-0.1-0.18-0.13-0.29c-0.03-0.08-0.06-0.19-0.08-0.3s-0.03-0.23-0.01-0.34
							c0.02-0.11,0.06-0.21,0.13-0.29c0.07-0.08,0.18-0.13,0.34-0.15c-0.18-0.17-0.34-0.27-0.48-0.3c-0.14-0.03-0.3-0.01-0.48,0.07
							c-0.18,0.08-0.35,0.29-0.52,0.61c-0.13,0.25-0.27,0.46-0.41,0.64c-0.15,0.18-0.29,0.33-0.43,0.45
							c-0.14,0.12-0.26,0.21-0.37,0.27c-0.11,0.06-0.2,0.1-0.26,0.11h-0.37c-0.06-0.02-0.13-0.04-0.2-0.08
							c-0.07-0.04-0.14-0.09-0.21-0.15c-0.07-0.06-0.13-0.13-0.19-0.22c-0.06-0.08-0.1-0.18-0.13-0.29
							c-0.03-0.08-0.06-0.19-0.08-0.3s-0.03-0.23-0.01-0.34c0.02-0.11,0.06-0.21,0.13-0.29c0.07-0.08,0.18-0.13,0.35-0.15
							c-0.18-0.17-0.35-0.27-0.49-0.3c-0.14-0.03-0.3-0.01-0.47,0.07s-0.34,0.29-0.51,0.61c-0.13,0.25-0.25,0.46-0.36,0.64
							c-0.11,0.18-0.21,0.33-0.3,0.45c-0.09,0.12-0.17,0.21-0.25,0.27c-0.07,0.06-0.14,0.1-0.2,0.11h-0.37
							c-0.06-0.02-0.13-0.04-0.2-0.08c-0.07-0.04-0.14-0.09-0.21-0.15c-0.07-0.06-0.13-0.13-0.19-0.22
							c-0.06-0.08-0.1-0.18-0.13-0.29c-0.03-0.08-0.06-0.19-0.08-0.3s-0.03-0.23-0.01-0.34c0.02-0.11,0.06-0.21,0.13-0.29
							c0.07-0.08,0.18-0.13,0.35-0.15c-0.18-0.17-0.35-0.27-0.49-0.3c-0.14-0.03-0.3-0.01-0.47,0.07s-0.34,0.29-0.51,0.61
							c-0.13,0.25-0.25,0.46-0.36,0.64c-0.11,0.18-0.21,0.33-0.3,0.45c-0.09,0.12-0.17,0.21-0.25,0.27c-0.07,0.06-0.14,0.1-0.2,0.11
							h-0.37c-0.06-0.02-0.13-0.04-0.2-0.08c-0.07-0.04-0.14-0.09-0.21-0.15c-0.07-0.06-0.13-0.13-0.19-0.22
							c-0.06-0.08-0.1-0.18-0.13-0.29c-0.03-0.08-0.06-0.19-0.08-0.3s-0.03-0.23-0.02-0.34c0.01-0.11,0.05-0.21,0.12-0.29
							c0.07-0.08,0.18-0.13,0.34-0.15c-0.18-0.17-0.35-0.27-0.49-0.3c-0.14-0.03-0.3-0.01-0.47,0.07c-0.17,0.08-0.34,0.29-0.51,0.61
							c-0.13,0.25-0.27,0.46-0.41,0.64s-0.29,0.33-0.43,0.45c-0.14,0.12-0.26,0.21-0.37,0.27c-0.11,0.06-0.2,0.1-0.26,0.11v1.47
							h14.71L250,268.37z"/>
					</g>
					<use xlink:href="#SVGID_9_"  style="overflow:visible;fill:none;stroke:#008ECA;stroke-width:0.4359;stroke-miterlimit:10;"/>
				</g>
			</g>
		</g>
		<g class="desc">
			<g>
				<g>
					<text transform="matrix(1 0 0 1 254.1672 261.0754)"><tspan x="0" y="0" class="st18 st7 st5">19 Mar</tspan><tspan x="0" y="9" class="st19 st7 st5">Floods</tspan><tspan x="0" y="18" class="st3 st7 st8">(Country-wide)</tspan><tspan x="0" y="27" class="st3 st7 st8">Iran</tspan><tspan x="0" y="36" class="st6 st7 st20">500,000</tspan></text>
				</g>
			</g>
		</g>
	</g>
	<g class="event">
		<g class="st13">
			<path class="st14" d="M196.92,327.08c0-14.09,11.42-25.51,25.51-25.51c14.09,0,25.51,11.42,25.51,25.51
				c0,14.09-11.42,25.51-25.51,25.51C208.34,352.59,196.92,341.17,196.92,327.08L196.92,327.08z"/>
		</g>
		<line class="st15" x1="222.32" y1="301.82" x2="222.32" y2="170.43"/>
		<g>
			<g>
				<defs>
					<path id="SVGID_11_" d="M222.36,167.87c4.41,0,7.96,3.69,7.73,8.16c-0.2,3.91-3.41,7.11-7.31,7.31
						c-4.46,0.23-8.16-3.32-8.16-7.73C214.62,171.33,218.09,167.87,222.36,167.87L222.36,167.87"/>
				</defs>
				<use xlink:href="#SVGID_11_"  style="overflow:visible;fill:#FFFFFF;"/>
				<clipPath id="SVGID_12_">
					<use xlink:href="#SVGID_11_"  style="overflow:visible;"/>
				</clipPath>
				<g class="st27">
					<g>
						<path class="st17" d="M222.53,172.62c1.25,0,2.23,0.22,2.94,0.67c0.71,0.44,1.25,0.93,1.6,1.47c0.36,0.53,0.62,1.24,0.8,2.13
							c-0.1-0.42-0.25-0.78-0.44-1.07c-0.2-0.29-0.48-0.59-0.87-0.9s-0.9-0.56-1.56-0.75c0.06,0.11,0.11,0.22,0.16,0.33
							c0.05,0.12,0.08,0.23,0.12,0.36c0.03,0.12,0.05,0.25,0.07,0.37c0.02,0.13,0.02,0.25,0.02,0.39c0,0.02,0,0.03,0,0.05
							c0,0.02,0,0.03,0,0.05c0,0.02,0,0.03,0,0.05c0,0.02,0,0.03,0,0.05c0,1.25-0.22,2.23-0.67,2.94c-0.44,0.71-0.93,1.25-1.47,1.6
							c-0.53,0.36-1.24,0.62-2.13,0.8c0.42-0.1,0.78-0.25,1.07-0.44c0.29-0.2,0.59-0.48,0.9-0.87s0.56-0.9,0.75-1.56
							c-0.11,0.06-0.22,0.11-0.33,0.16c-0.11,0.05-0.23,0.08-0.36,0.12c-0.12,0.03-0.25,0.05-0.37,0.07
							c-0.13,0.02-0.25,0.02-0.39,0.02c-0.02,0-0.03,0-0.05,0c-0.02,0-0.03,0-0.05,0c-0.02,0-0.03,0-0.05,0c-0.02,0-0.03,0-0.05,0
							c-1.25,0-2.23-0.22-2.94-0.67c-0.71-0.44-1.25-0.93-1.6-1.47c-0.36-0.53-0.62-1.24-0.8-2.13c0.1,0.42,0.25,0.78,0.44,1.07
							c0.2,0.29,0.48,0.59,0.87,0.9c0.38,0.31,0.9,0.56,1.56,0.75c-0.06-0.11-0.11-0.22-0.16-0.33c-0.05-0.11-0.08-0.23-0.12-0.36
							s-0.05-0.25-0.07-0.37c-0.02-0.13-0.02-0.25-0.02-0.38c0-0.02,0-0.03,0-0.05c0-0.02,0-0.03,0-0.05c0-0.02,0-0.03,0-0.05
							c0-0.02,0-0.03,0-0.05c0-1.25,0.22-2.23,0.67-2.94c0.44-0.71,0.93-1.25,1.47-1.6c0.53-0.36,1.24-0.62,2.13-0.8
							c-0.42,0.1-0.78,0.25-1.07,0.44c-0.29,0.2-0.59,0.48-0.9,0.87s-0.56,0.9-0.75,1.56c0.11-0.06,0.22-0.11,0.33-0.16
							c0.11-0.05,0.23-0.08,0.36-0.12c0.12-0.03,0.25-0.05,0.37-0.07c0.13-0.02,0.25-0.02,0.39-0.02c0.02,0,0.03,0,0.05,0
							s0.03,0,0.05,0c0.02,0,0.03,0,0.05,0C222.5,172.62,222.52,172.62,222.53,172.62z"/>
					</g>
				</g>
				<use xlink:href="#SVGID_11_"  style="overflow:visible;fill:none;stroke:#008ECA;stroke-width:0.4359;stroke-miterlimit:10;"/>
			</g>
		</g>
		<g class="desc">
			<g>
				<g>
					<text transform="matrix(1 0 0 1 234.6757 176.1668)"><tspan x="0" y="0" class="st18 st7 st5">04 Mar</tspan><tspan x="0" y="9" class="st19 st7 st5">Cyclone Idai</tspan><tspan x="0" y="18" class="st3 st7 st8">Mozambique, </tspan><tspan x="0" y="27" class="st3 st7 st8">Malawi, Zimbabwe</tspan><tspan x="0" y="36" class="st3 st7 st8">and Madagascar</tspan><tspan x="0" y="45" class="st6 st7 st20">617,000</tspan></text>
				</g>
			</g>
		</g>
	</g>
	<g class="event">
		<g class="st13">
			<path class="st24" d="M122.56,348.19c0-2.43,1.97-4.4,4.4-4.4c2.43,0,4.4,1.97,4.4,4.4s-1.97,4.4-4.4,4.4
				C124.53,352.59,122.56,350.62,122.56,348.19L122.56,348.19z"/>
		</g>
		<g>
			<line class="st15" x1="126.66" y1="343.79" x2="126.65" y2="182"/>
			<g>
				<defs>
					<path id="SVGID_13_" d="M126.65,167.87c4.41,0,7.96,3.69,7.73,8.16c-0.2,3.91-3.41,7.11-7.31,7.31
						c-4.46,0.23-8.16-3.32-8.16-7.73C118.91,171.33,122.38,167.87,126.65,167.87L126.65,167.87"/>
				</defs>
				<use xlink:href="#SVGID_13_"  style="overflow:visible;fill:#FFFFFF;"/>
				<clipPath id="SVGID_14_">
					<use xlink:href="#SVGID_13_"  style="overflow:visible;"/>
				</clipPath>
				<g class="st28">
					<g>
						<path class="st6" d="M131.82,177.53h2.21v2.21h-1.1c-0.06-0.02-0.13-0.04-0.2-0.08c-0.07-0.04-0.14-0.09-0.21-0.15
							c-0.07-0.06-0.13-0.13-0.19-0.22c-0.06-0.08-0.1-0.18-0.13-0.29c-0.03-0.08-0.06-0.19-0.08-0.3s-0.03-0.23-0.01-0.34
							c0.02-0.11,0.06-0.21,0.13-0.29c0.07-0.08,0.18-0.13,0.34-0.15c-0.18-0.17-0.34-0.27-0.48-0.3c-0.14-0.03-0.3-0.01-0.48,0.07
							s-0.35,0.29-0.52,0.61c-0.13,0.25-0.27,0.46-0.41,0.64s-0.29,0.33-0.43,0.45c-0.14,0.12-0.26,0.21-0.37,0.27
							c-0.11,0.06-0.2,0.1-0.26,0.11h-0.37c-0.06-0.02-0.13-0.04-0.2-0.08c-0.07-0.04-0.14-0.09-0.21-0.15
							c-0.07-0.06-0.13-0.13-0.19-0.22c-0.06-0.08-0.1-0.18-0.13-0.29c-0.03-0.08-0.06-0.19-0.08-0.3s-0.03-0.23-0.01-0.34
							c0.02-0.11,0.06-0.21,0.13-0.29c0.07-0.08,0.18-0.13,0.35-0.15c-0.18-0.17-0.35-0.27-0.49-0.3c-0.14-0.03-0.3-0.01-0.47,0.07
							s-0.34,0.29-0.51,0.61c-0.13,0.25-0.25,0.46-0.36,0.64c-0.11,0.18-0.21,0.33-0.3,0.45c-0.09,0.12-0.17,0.21-0.25,0.27
							c-0.07,0.06-0.14,0.1-0.2,0.11h-0.37c-0.06-0.02-0.13-0.04-0.2-0.08c-0.07-0.04-0.14-0.09-0.21-0.15
							c-0.07-0.06-0.13-0.13-0.19-0.22c-0.06-0.08-0.1-0.18-0.13-0.29c-0.03-0.08-0.06-0.19-0.08-0.3
							c-0.02-0.12-0.03-0.23-0.01-0.34c0.02-0.11,0.06-0.21,0.13-0.29c0.07-0.08,0.18-0.13,0.35-0.15c-0.18-0.17-0.35-0.27-0.49-0.3
							c-0.14-0.03-0.3-0.01-0.47,0.07s-0.34,0.29-0.51,0.61c-0.13,0.25-0.25,0.46-0.36,0.64c-0.11,0.18-0.21,0.33-0.3,0.45
							c-0.09,0.12-0.17,0.21-0.25,0.27c-0.07,0.06-0.14,0.1-0.2,0.11h-0.37c-0.06-0.02-0.13-0.04-0.2-0.08
							c-0.07-0.04-0.14-0.09-0.21-0.15c-0.07-0.06-0.13-0.13-0.19-0.22c-0.06-0.08-0.1-0.18-0.13-0.29
							c-0.03-0.08-0.06-0.19-0.08-0.3c-0.02-0.12-0.03-0.23-0.02-0.34c0.01-0.11,0.05-0.21,0.12-0.29s0.18-0.13,0.34-0.15
							c-0.18-0.17-0.35-0.27-0.49-0.3c-0.14-0.03-0.3-0.01-0.47,0.07c-0.17,0.08-0.34,0.29-0.51,0.61
							c-0.13,0.25-0.27,0.46-0.41,0.64c-0.15,0.18-0.29,0.33-0.43,0.45c-0.14,0.12-0.26,0.21-0.37,0.27
							c-0.11,0.06-0.2,0.1-0.26,0.12v-2.21c0.06-0.02,0.15-0.05,0.26-0.12c0.11-0.06,0.24-0.15,0.37-0.27
							c0.14-0.12,0.28-0.27,0.43-0.45c0.15-0.18,0.28-0.39,0.41-0.64c0.17-0.33,0.34-0.53,0.51-0.62c0.17-0.08,0.33-0.1,0.47-0.07
							c0.14,0.03,0.3,0.14,0.49,0.3c-0.16,0.02-0.28,0.06-0.34,0.15s-0.11,0.18-0.12,0.29c-0.01,0.11-0.01,0.23,0.02,0.34
							c0.02,0.12,0.05,0.22,0.08,0.3c0.03,0.11,0.07,0.2,0.13,0.29c0.06,0.08,0.12,0.16,0.19,0.22c0.07,0.06,0.14,0.11,0.21,0.15
							c0.07,0.04,0.14,0.07,0.2,0.08h0.37c0.06-0.02,0.13-0.05,0.2-0.12c0.07-0.06,0.15-0.15,0.25-0.27
							c0.09-0.12,0.19-0.27,0.3-0.45c0.11-0.18,0.23-0.39,0.36-0.64c0.17-0.33,0.34-0.53,0.51-0.62s0.33-0.1,0.47-0.07
							s0.3,0.14,0.49,0.3c-0.16,0.02-0.28,0.06-0.35,0.15c-0.07,0.08-0.11,0.18-0.13,0.29c-0.02,0.11-0.01,0.23,0.01,0.34
							c0.02,0.12,0.05,0.22,0.08,0.3c0.03,0.11,0.07,0.2,0.13,0.29c0.06,0.08,0.12,0.16,0.19,0.22s0.14,0.11,0.21,0.15
							c0.07,0.04,0.14,0.06,0.2,0.08h0.37v-4.05l-0.37,0.37l-0.37-0.37l3.49-2.94l3.49,2.94l-0.37,0.37l-0.37-0.37v4.05
							L131.82,177.53z M134.05,183.47v-1.47h-1.1c-0.06-0.02-0.13-0.04-0.2-0.08c-0.07-0.04-0.14-0.09-0.21-0.15
							c-0.07-0.06-0.13-0.13-0.19-0.22c-0.06-0.08-0.1-0.18-0.13-0.29c-0.03-0.08-0.06-0.19-0.08-0.3s-0.03-0.23-0.01-0.34
							c0.02-0.11,0.06-0.21,0.13-0.29c0.07-0.08,0.18-0.13,0.34-0.15c-0.18-0.17-0.34-0.27-0.48-0.3c-0.14-0.03-0.3-0.01-0.48,0.07
							c-0.18,0.08-0.35,0.29-0.52,0.61c-0.13,0.25-0.27,0.46-0.41,0.64c-0.15,0.18-0.29,0.33-0.43,0.45
							c-0.14,0.12-0.26,0.21-0.37,0.27c-0.11,0.06-0.2,0.1-0.26,0.11h-0.37c-0.06-0.02-0.13-0.04-0.2-0.08
							c-0.07-0.04-0.14-0.09-0.21-0.15c-0.07-0.06-0.13-0.13-0.19-0.22c-0.06-0.08-0.1-0.18-0.13-0.29
							c-0.03-0.08-0.06-0.19-0.08-0.3s-0.03-0.23-0.01-0.34c0.02-0.11,0.06-0.21,0.13-0.29c0.07-0.08,0.18-0.13,0.35-0.15
							c-0.18-0.17-0.35-0.27-0.49-0.3c-0.14-0.03-0.3-0.01-0.47,0.07s-0.34,0.29-0.51,0.61c-0.13,0.25-0.25,0.46-0.36,0.64
							c-0.11,0.18-0.21,0.33-0.3,0.45c-0.09,0.12-0.17,0.21-0.25,0.27c-0.07,0.06-0.14,0.1-0.2,0.11h-0.37
							c-0.06-0.02-0.13-0.04-0.2-0.08c-0.07-0.04-0.14-0.09-0.21-0.15c-0.07-0.06-0.13-0.13-0.19-0.22
							c-0.06-0.08-0.1-0.18-0.13-0.29c-0.03-0.08-0.06-0.19-0.08-0.3s-0.03-0.23-0.01-0.34c0.02-0.11,0.06-0.21,0.13-0.29
							c0.07-0.08,0.18-0.13,0.35-0.15c-0.18-0.17-0.35-0.27-0.49-0.3c-0.14-0.03-0.3-0.01-0.47,0.07s-0.34,0.29-0.51,0.61
							c-0.13,0.25-0.25,0.46-0.36,0.64c-0.11,0.18-0.21,0.33-0.3,0.45c-0.09,0.12-0.17,0.21-0.25,0.27c-0.07,0.06-0.14,0.1-0.2,0.11
							h-0.37c-0.06-0.02-0.13-0.04-0.2-0.08c-0.07-0.04-0.14-0.09-0.21-0.15c-0.07-0.06-0.13-0.13-0.19-0.22
							c-0.06-0.08-0.1-0.18-0.13-0.29c-0.03-0.08-0.06-0.19-0.08-0.3s-0.03-0.23-0.02-0.34c0.01-0.11,0.05-0.21,0.12-0.29
							c0.07-0.08,0.18-0.13,0.34-0.15c-0.18-0.17-0.35-0.27-0.49-0.3c-0.14-0.03-0.3-0.01-0.47,0.07c-0.17,0.08-0.34,0.29-0.51,0.61
							c-0.13,0.25-0.27,0.46-0.41,0.64s-0.29,0.33-0.43,0.45c-0.14,0.12-0.26,0.21-0.37,0.27c-0.11,0.06-0.2,0.1-0.26,0.11v1.47
							h14.71L134.05,183.47z"/>
					</g>
				</g>
				<use xlink:href="#SVGID_13_"  style="overflow:visible;fill:none;stroke:#008ECA;stroke-width:0.4359;stroke-miterlimit:10;"/>
			</g>
		</g>
		<g class="desc">
			<g class="st23">
				<text transform="matrix(1 0 0 1 138.0991 176.1671)"><tspan x="0" y="0" class="st18 st7 st5">22 Jan</tspan><tspan x="0" y="9" class="st19 st7 st5">Floods</tspan><tspan x="0" y="18" class="st3 st7 st8">(Davao)</tspan><tspan x="0" y="27" class="st3 st7 st8">Philippines</tspan><tspan x="0" y="36" class="st6 st7 st20">106,000 </tspan></text>
			</g>
		</g>
	</g>
	<g class="event">
		<g class="st13">
			<path class="st24" d="M323.48,344.7c0-4.36,3.53-7.89,7.89-7.89s7.89,3.53,7.89,7.89c0,4.36-3.53,7.89-7.89,7.89
				S323.48,349.06,323.48,344.7L323.48,344.7z"/>
		</g>
		<g>
			<line class="st15" x1="331.71" y1="337.1" x2="331.71" y2="211.75"/>
			<g>
				<g>
					<defs>
						<path id="SVGID_15_" d="M331.71,209.06c4.41,0,7.96,3.69,7.73,8.16c-0.2,3.91-3.41,7.11-7.31,7.31
							c-4.46,0.23-8.16-3.32-8.16-7.73C323.97,212.52,327.43,209.06,331.71,209.06L331.71,209.06"/>
					</defs>
					<use xlink:href="#SVGID_15_"  style="overflow:visible;fill:#FFFFFF;"/>
					<clipPath id="SVGID_16_">
						<use xlink:href="#SVGID_15_"  style="overflow:visible;"/>
					</clipPath>
					<g class="st29">
						<path class="st6" d="M336.88,218.73h2.21v2.21h-1.1c-0.06-0.02-0.13-0.04-0.2-0.08c-0.07-0.04-0.14-0.09-0.21-0.15
							c-0.07-0.06-0.13-0.13-0.19-0.22c-0.06-0.08-0.1-0.18-0.13-0.29c-0.03-0.08-0.06-0.19-0.08-0.3
							c-0.02-0.12-0.03-0.23-0.01-0.34c0.02-0.11,0.06-0.21,0.13-0.29c0.07-0.08,0.18-0.13,0.34-0.15c-0.18-0.17-0.34-0.27-0.48-0.3
							c-0.14-0.03-0.3-0.01-0.48,0.07c-0.18,0.08-0.35,0.29-0.52,0.61c-0.13,0.25-0.27,0.46-0.41,0.64s-0.29,0.33-0.42,0.45
							s-0.26,0.21-0.37,0.27c-0.11,0.06-0.2,0.1-0.26,0.11h-0.37c-0.06-0.02-0.13-0.04-0.2-0.08c-0.07-0.04-0.14-0.09-0.21-0.15
							c-0.07-0.06-0.13-0.13-0.19-0.22c-0.06-0.08-0.1-0.18-0.13-0.29c-0.03-0.08-0.06-0.19-0.08-0.3
							c-0.02-0.12-0.03-0.23-0.01-0.34c0.02-0.11,0.06-0.21,0.13-0.29c0.07-0.08,0.18-0.13,0.34-0.15c-0.18-0.17-0.35-0.27-0.49-0.3
							c-0.14-0.03-0.3-0.01-0.47,0.07c-0.17,0.08-0.34,0.29-0.51,0.61c-0.13,0.25-0.25,0.46-0.36,0.64
							c-0.11,0.18-0.21,0.33-0.3,0.45c-0.09,0.12-0.17,0.21-0.25,0.27c-0.07,0.06-0.14,0.1-0.2,0.11h-0.37
							c-0.06-0.02-0.13-0.04-0.2-0.08c-0.07-0.04-0.14-0.09-0.21-0.15c-0.07-0.06-0.13-0.13-0.19-0.22
							c-0.06-0.08-0.1-0.18-0.13-0.29c-0.03-0.08-0.06-0.19-0.08-0.3c-0.02-0.12-0.03-0.23-0.01-0.34c0.02-0.11,0.06-0.21,0.13-0.29
							c0.07-0.08,0.18-0.13,0.34-0.15c-0.18-0.17-0.35-0.27-0.49-0.3c-0.14-0.03-0.3-0.01-0.47,0.07c-0.17,0.08-0.34,0.29-0.51,0.61
							c-0.13,0.25-0.25,0.46-0.36,0.64c-0.11,0.18-0.21,0.33-0.3,0.45c-0.09,0.12-0.17,0.21-0.25,0.27c-0.07,0.06-0.14,0.1-0.2,0.11
							h-0.37c-0.06-0.02-0.13-0.04-0.2-0.08c-0.07-0.04-0.14-0.09-0.21-0.15c-0.07-0.06-0.13-0.13-0.19-0.22
							c-0.06-0.08-0.1-0.18-0.13-0.29c-0.03-0.08-0.06-0.19-0.08-0.3c-0.02-0.12-0.03-0.23-0.02-0.34c0.01-0.11,0.05-0.21,0.12-0.29
							c0.07-0.08,0.18-0.13,0.34-0.15c-0.18-0.17-0.35-0.27-0.49-0.3c-0.14-0.03-0.3-0.01-0.47,0.07c-0.17,0.08-0.34,0.29-0.51,0.61
							c-0.13,0.25-0.27,0.46-0.41,0.64s-0.29,0.33-0.43,0.45c-0.14,0.12-0.26,0.21-0.37,0.27c-0.11,0.06-0.2,0.1-0.26,0.12v-2.21
							c0.06-0.02,0.15-0.05,0.26-0.12c0.11-0.06,0.24-0.15,0.37-0.27c0.14-0.12,0.28-0.27,0.43-0.45c0.15-0.18,0.28-0.39,0.41-0.64
							c0.17-0.33,0.34-0.53,0.51-0.62c0.17-0.08,0.33-0.1,0.47-0.07s0.3,0.14,0.49,0.3c-0.16,0.02-0.28,0.06-0.34,0.15
							c-0.07,0.08-0.11,0.18-0.12,0.29c-0.01,0.11-0.01,0.23,0.02,0.34c0.02,0.12,0.05,0.22,0.08,0.3c0.03,0.11,0.07,0.2,0.13,0.29
							s0.12,0.16,0.19,0.22c0.07,0.06,0.14,0.11,0.21,0.15c0.07,0.04,0.14,0.07,0.2,0.08h0.37c0.06-0.02,0.13-0.05,0.2-0.12
							c0.07-0.06,0.15-0.15,0.25-0.27c0.09-0.12,0.19-0.27,0.3-0.45c0.11-0.18,0.23-0.39,0.36-0.64c0.17-0.33,0.34-0.53,0.51-0.62
							c0.17-0.08,0.33-0.1,0.47-0.07s0.3,0.14,0.49,0.3c-0.16,0.02-0.28,0.06-0.34,0.15s-0.11,0.18-0.13,0.29
							c-0.01,0.11-0.01,0.23,0.01,0.34c0.02,0.12,0.05,0.22,0.08,0.3c0.03,0.11,0.07,0.2,0.13,0.29s0.12,0.16,0.19,0.22
							c0.07,0.06,0.14,0.11,0.21,0.15c0.07,0.04,0.14,0.06,0.2,0.08h0.37v-4.05l-0.37,0.37l-0.37-0.37l3.49-2.94l3.49,2.94
							l-0.37,0.37l-0.37-0.37v4.05L336.88,218.73z M339.11,224.66v-1.47H338c-0.06-0.02-0.13-0.04-0.2-0.08
							c-0.07-0.04-0.14-0.09-0.21-0.15c-0.07-0.06-0.13-0.13-0.19-0.22c-0.06-0.08-0.1-0.18-0.13-0.29
							c-0.03-0.08-0.06-0.19-0.08-0.3c-0.02-0.12-0.03-0.23-0.01-0.34c0.01-0.11,0.06-0.21,0.13-0.29c0.07-0.08,0.18-0.13,0.34-0.15
							c-0.18-0.17-0.33-0.27-0.48-0.3c-0.14-0.03-0.3-0.01-0.48,0.07c-0.18,0.08-0.35,0.29-0.52,0.61
							c-0.13,0.25-0.27,0.46-0.41,0.64c-0.15,0.18-0.29,0.33-0.43,0.45c-0.14,0.12-0.26,0.21-0.37,0.27s-0.2,0.1-0.26,0.11h-0.37
							c-0.06-0.02-0.13-0.04-0.2-0.08c-0.07-0.04-0.14-0.09-0.21-0.15c-0.07-0.06-0.13-0.13-0.19-0.22
							c-0.06-0.08-0.1-0.18-0.13-0.29c-0.03-0.08-0.06-0.19-0.08-0.3c-0.02-0.12-0.03-0.23-0.01-0.34c0.02-0.11,0.06-0.21,0.13-0.29
							c0.07-0.08,0.18-0.13,0.35-0.15c-0.18-0.17-0.35-0.27-0.49-0.3c-0.14-0.03-0.3-0.01-0.47,0.07c-0.17,0.08-0.34,0.29-0.51,0.61
							c-0.13,0.25-0.25,0.46-0.36,0.64s-0.21,0.33-0.3,0.45s-0.17,0.21-0.25,0.27s-0.14,0.1-0.2,0.11h-0.37
							c-0.06-0.02-0.13-0.04-0.2-0.08c-0.07-0.04-0.14-0.09-0.21-0.15c-0.07-0.06-0.13-0.13-0.19-0.22
							c-0.06-0.08-0.1-0.18-0.13-0.29c-0.03-0.08-0.06-0.19-0.08-0.3c-0.02-0.12-0.03-0.23-0.01-0.34c0.02-0.11,0.06-0.21,0.13-0.29
							c0.07-0.08,0.18-0.13,0.35-0.15c-0.18-0.17-0.35-0.27-0.49-0.3c-0.14-0.03-0.3-0.01-0.47,0.07c-0.17,0.08-0.34,0.29-0.51,0.61
							c-0.13,0.25-0.25,0.46-0.36,0.64s-0.21,0.33-0.3,0.45s-0.17,0.21-0.25,0.27c-0.07,0.06-0.14,0.1-0.2,0.11h-0.37
							c-0.06-0.02-0.13-0.04-0.2-0.08c-0.07-0.04-0.14-0.09-0.21-0.15c-0.07-0.06-0.13-0.13-0.19-0.22
							c-0.06-0.08-0.1-0.18-0.13-0.29c-0.03-0.08-0.06-0.19-0.08-0.3c-0.02-0.12-0.03-0.23-0.02-0.34c0.01-0.11,0.05-0.21,0.12-0.29
							c0.07-0.08,0.18-0.13,0.34-0.15c-0.18-0.17-0.35-0.27-0.49-0.3c-0.14-0.03-0.3-0.01-0.47,0.07s-0.34,0.29-0.51,0.61
							c-0.13,0.25-0.27,0.46-0.41,0.64s-0.29,0.33-0.43,0.45s-0.26,0.21-0.37,0.27c-0.11,0.06-0.2,0.1-0.26,0.11v1.47h14.71
							L339.11,224.66z"/>
					</g>
					<use xlink:href="#SVGID_15_"  style="overflow:visible;fill:none;stroke:#008ECA;stroke-width:0.4359;stroke-miterlimit:10;"/>
				</g>
			</g>
		</g>
		<g class="desc">
			<g>
				<g>
					<text transform="matrix(1 0 0 1 342.4224 216.1669)"><tspan x="0" y="0" class="st18 st7 st5">01 May</tspan><tspan x="0" y="9" class="st19 st7 st5">Floods </tspan><tspan x="0" y="18" class="st3 st7 st8">(Country-wide)</tspan><tspan x="0" y="27" class="st3 st7 st8">Ethiopia</tspan><tspan x="0" y="36" class="st6 st7 st20">190,000</tspan></text>
				</g>
			</g>
		</g>
	</g>
	<g class="event">
		<g class="st13">
			<path class="st14" d="M404.85,340.6c0-6.62,5.37-11.99,11.99-11.99c6.62,0,11.99,5.37,11.99,11.99c0,6.62-5.37,11.99-11.99,11.99
				C410.22,352.59,404.85,347.22,404.85,340.6L404.85,340.6z"/>
		</g>
		<g>
			<line class="st15" x1="417.18" y1="328.1" x2="417.18" y2="178.75"/>
		</g>
		<g>
			<defs>
				<path id="SVGID_17_" d="M417.09,175.97c4.41,0,7.96,3.69,7.73,8.16c-0.2,3.91-3.41,7.11-7.31,7.31
					c-4.46,0.23-8.16-3.32-8.16-7.73C409.35,179.44,412.81,175.97,417.09,175.97L417.09,175.97"/>
			</defs>
			<use xlink:href="#SVGID_17_"  style="overflow:visible;fill:#FFFFFF;"/>
			<clipPath id="SVGID_18_">
				<use xlink:href="#SVGID_17_"  style="overflow:visible;"/>
			</clipPath>
			<g class="st30">
				<g>
					<path class="st17" d="M417.26,180.73c1.25,0,2.23,0.22,2.94,0.67c0.71,0.44,1.25,0.93,1.6,1.47c0.36,0.53,0.62,1.24,0.8,2.13
						c-0.1-0.42-0.25-0.78-0.44-1.07c-0.2-0.29-0.48-0.59-0.87-0.9c-0.38-0.31-0.9-0.56-1.56-0.75c0.06,0.11,0.12,0.22,0.16,0.33
						c0.05,0.12,0.08,0.23,0.12,0.36c0.03,0.12,0.05,0.25,0.07,0.37s0.02,0.25,0.02,0.39c0,0.02,0,0.03,0,0.05c0,0.02,0,0.03,0,0.05
						c0,0.02,0,0.03,0,0.05c0,0.02,0,0.03,0,0.05c0,1.25-0.22,2.23-0.67,2.94c-0.44,0.71-0.93,1.25-1.47,1.6
						c-0.53,0.36-1.24,0.62-2.13,0.8c0.42-0.1,0.78-0.25,1.07-0.44c0.29-0.2,0.59-0.48,0.9-0.87s0.56-0.9,0.75-1.56
						c-0.11,0.06-0.22,0.11-0.33,0.16c-0.11,0.05-0.23,0.08-0.36,0.12c-0.12,0.03-0.25,0.05-0.37,0.07
						c-0.13,0.02-0.25,0.02-0.38,0.02c-0.02,0-0.03,0-0.05,0c-0.02,0-0.03,0-0.05,0c-0.02,0-0.03,0-0.05,0c-0.02,0-0.03,0-0.05,0
						c-1.25,0-2.23-0.22-2.94-0.67c-0.71-0.44-1.25-0.93-1.6-1.47c-0.36-0.53-0.62-1.24-0.8-2.13c0.1,0.42,0.25,0.78,0.44,1.07
						c0.2,0.29,0.48,0.59,0.87,0.9s0.9,0.56,1.56,0.75c-0.06-0.11-0.12-0.22-0.16-0.33c-0.05-0.11-0.08-0.23-0.12-0.36
						c-0.03-0.12-0.05-0.25-0.07-0.37c-0.02-0.13-0.02-0.25-0.02-0.38c0-0.02,0-0.03,0-0.05c0-0.02,0-0.03,0-0.05
						c0-0.02,0-0.03,0-0.05c0-0.02,0-0.03,0-0.05c0-1.25,0.22-2.23,0.67-2.94c0.44-0.71,0.93-1.25,1.47-1.6
						c0.53-0.36,1.24-0.62,2.13-0.8c-0.42,0.1-0.78,0.25-1.07,0.44c-0.29,0.2-0.59,0.48-0.9,0.87s-0.56,0.9-0.75,1.56
						c0.11-0.06,0.22-0.11,0.33-0.16c0.11-0.05,0.23-0.08,0.36-0.12c0.12-0.03,0.25-0.05,0.37-0.07c0.13-0.02,0.25-0.02,0.38-0.02
						c0.02,0,0.03,0,0.05,0c0.02,0,0.03,0,0.05,0c0.02,0,0.03,0,0.05,0C417.23,180.73,417.24,180.73,417.26,180.73z"/>
				</g>
			</g>
			<use xlink:href="#SVGID_17_"  style="overflow:visible;fill:none;stroke:#008ECA;stroke-width:0.4359;stroke-miterlimit:10;"/>
		</g>
		<g class="desc">
			<g>
				<g>
					<text transform="matrix(1 0 0 1 428.4509 184.3584)"><tspan x="0" y="0" class="st18 st7 st5">12 Jun</tspan><tspan x="0" y="9" class="st19 st7 st5">Cyclone Vayu</tspan><tspan x="0" y="18" class="st3 st7 st8">India</tspan><tspan x="0" y="27" class="st6 st7 st20">289,000</tspan></text>
				</g>
			</g>
		</g>
	</g>
	<g class="event">
		<g>
			<path class="st21" d="M82.82,349.6c0-1.65,1.34-3,2.99-3c1.65,0,2.99,1.34,2.99,3s-1.34,3-2.99,3
				C84.16,352.59,82.82,351.25,82.82,349.6L82.82,349.6z"/>
			<g>
				<g>
					<polyline class="st15" points="82.62,349.36 74.91,349.36 74.91,255.46 					"/>
					<g>
						<g>
							<defs>
								<path id="SVGID_19_" d="M75.24,252.78c4.41,0,7.96,3.69,7.73,8.16c-0.2,3.91-3.41,7.11-7.31,7.31
									c-4.46,0.23-8.16-3.32-8.16-7.73C67.5,256.24,70.97,252.78,75.24,252.78L75.24,252.78"/>
							</defs>
							<use xlink:href="#SVGID_19_"  style="overflow:visible;fill:#FFFFFF;"/>
							<clipPath id="SVGID_20_">
								<use xlink:href="#SVGID_19_"  style="overflow:visible;"/>
							</clipPath>
							<g class="st32">
								<path class="st6" d="M69.55,265.16l1.38,1.81l-1.83,1.5h-1.23v-2.5l1.69-0.8V265.16z M67.87,263.4h2.14l-0.49,1.13
									l-1.65,0.87V263.4z M71.46,266.61l-1.51-1.9l0.66-1.32h3.33l0.47,0.48l-1.5,1.87l-1.45,0.87V266.61z M73.15,266.31
									l3.65,2.08l0.02,0.09h-5.89l-0.34-0.42L73.15,266.31z M83.62,263.4h-7.86c-0.02-0.25-0.06-0.48-0.12-0.7
									c-0.05-0.22-0.11-0.44-0.17-0.66s-0.11-0.43-0.16-0.65c-0.05-0.22-0.08-0.44-0.1-0.68c0-0.08,0-0.16,0-0.23
									s0-0.14-0.01-0.21c0-0.07-0.01-0.14-0.02-0.21c-0.01-0.07-0.02-0.14-0.02-0.22c0-0.04,0-0.08,0-0.12s0-0.08,0-0.12
									s0-0.08,0-0.12s0-0.08,0-0.12c0-0.08,0-0.17-0.01-0.25c0-0.09-0.01-0.17-0.01-0.25c0-0.08-0.01-0.16-0.01-0.25
									s-0.01-0.16-0.01-0.23c0-0.11,0-0.21,0.01-0.31c0.01-0.1,0.02-0.19,0.05-0.28c0.02-0.09,0.06-0.16,0.1-0.23
									c0.04-0.07,0.1-0.13,0.17-0.19c0.04-0.03,0.08-0.06,0.12-0.09c0.04-0.02,0.07-0.04,0.1-0.06c0.03-0.01,0.06-0.02,0.09-0.02
									c0.03,0,0.06-0.01,0.08-0.01c0.07-0.01,0.15,0.01,0.23,0.06c0.08,0.05,0.16,0.11,0.23,0.19c0.08,0.08,0.15,0.18,0.22,0.29
									c0.07,0.11,0.12,0.23,0.17,0.35c-0.04,0.03-0.08,0.06-0.11,0.09s-0.06,0.06-0.08,0.08c-0.02,0.02-0.04,0.05-0.07,0.07
									c-0.16,0.22-0.15,0.52,0.02,0.89c0.17,0.37,0.42,0.7,0.74,0.99c0.32,0.29,0.67,0.48,1.04,0.57
									c0.37,0.09,0.68-0.04,0.92-0.38c0.1-0.15,0.14-0.35,0.14-0.61s-0.06-0.52-0.17-0.79c-0.1-0.27-0.24-0.51-0.42-0.74
									c-0.18-0.23-0.39-0.38-0.63-0.46c-0.1-0.03-0.19-0.06-0.28-0.07s-0.18-0.02-0.26-0.01c-0.08,0-0.16,0.02-0.23,0.04
									s-0.14,0.05-0.21,0.08c-0.06-0.14-0.13-0.27-0.2-0.41c-0.08-0.13-0.17-0.25-0.27-0.35s-0.22-0.19-0.34-0.25
									c-0.13-0.07-0.27-0.1-0.42-0.11c-0.06,0-0.12,0.01-0.18,0.02c-0.06,0.01-0.12,0.03-0.18,0.06s-0.12,0.06-0.18,0.09
									c-0.06,0.04-0.12,0.08-0.17,0.13c-0.11,0.09-0.19,0.19-0.26,0.3c-0.07,0.11-0.12,0.23-0.15,0.34
									c-0.04,0.12-0.06,0.24-0.07,0.36c-0.01,0.12-0.02,0.24-0.02,0.36c0,0.06,0,0.11,0,0.17c0,0.06,0,0.11,0.01,0.17
									s0.01,0.11,0.01,0.16c0,0.05,0.01,0.11,0.01,0.17c-0.02-0.02-0.05-0.05-0.07-0.07c-0.02-0.02-0.05-0.04-0.08-0.06
									s-0.06-0.04-0.09-0.06s-0.07-0.04-0.1-0.07c-0.07-0.05-0.15-0.09-0.22-0.13c-0.07-0.04-0.14-0.07-0.2-0.09
									c-0.07-0.02-0.13-0.04-0.19-0.06c-0.06-0.01-0.12-0.02-0.18-0.02c-0.16,0.01-0.29,0.05-0.39,0.12
									c-0.1,0.07-0.18,0.17-0.25,0.29s-0.11,0.25-0.14,0.41c-0.03,0.15-0.05,0.31-0.06,0.47c-0.16,0.14-0.29,0.36-0.38,0.67
									s-0.13,0.61-0.11,0.9c0.02,0.29,0.09,0.53,0.23,0.72c0.14,0.19,0.36,0.23,0.65,0.14c0.16-0.06,0.29-0.15,0.41-0.26
									c0.11-0.12,0.21-0.25,0.28-0.41s0.12-0.31,0.15-0.47c0.03-0.16,0.03-0.32,0.02-0.46c-0.02-0.16-0.06-0.3-0.11-0.41
									c-0.05-0.11-0.13-0.21-0.23-0.31c-0.1-0.1-0.24-0.16-0.42-0.2c0.01-0.13,0.02-0.24,0.04-0.33s0.04-0.16,0.07-0.22
									c0.03-0.06,0.06-0.1,0.1-0.12c0.04-0.02,0.08-0.04,0.12-0.04c0.02,0,0.06,0,0.09,0.01c0.04,0.01,0.08,0.02,0.12,0.04
									c0.05,0.02,0.09,0.04,0.15,0.07c0.05,0.03,0.11,0.06,0.17,0.1c0.11,0.07,0.21,0.14,0.28,0.2c0.07,0.06,0.14,0.11,0.18,0.16
									c0.05,0.05,0.09,0.1,0.11,0.15c0.02,0.05,0.05,0.12,0.06,0.19c0,0.07,0,0.15,0.01,0.25c0,0.1,0.01,0.2,0.01,0.3
									c0,0.1,0.01,0.18,0.01,0.26c0,0.07,0.01,0.11,0.01,0.12c0.02,0.24,0.04,0.46,0.06,0.68s0.05,0.42,0.08,0.63
									c0.03,0.21,0.06,0.42,0.09,0.63c0.03,0.21,0.06,0.44,0.08,0.68H74.6l0.76,0.36l3.21,1.07l2.5-0.36l2.53-0.8v-0.27
									L83.62,263.4z M73.09,259.94l-0.32,1.82c-0.04-0.15-0.06-0.32-0.07-0.51c0-0.19,0-0.38,0.01-0.55
									c0.01-0.18,0.03-0.39,0.06-0.63l0.32-0.14V259.94z M79.91,267.62l-1.7-2.4L75,264.15l-1.43,1.78l3.93,2.14L79.91,267.62z
									 M76.85,258.23l0.34-0.21c0.25,0.19,0.45,0.38,0.62,0.56s0.33,0.41,0.49,0.68c0.16,0.27,0.29,0.58,0.37,0.94l-1.82-1.98
									V258.23z M78.36,268.46l2.01-0.44l1.85,0.44H78.36z M79.04,265.26l2.42-0.32l2.14,0.69v2.63l-2.97-0.7l-1.59-2.3H79.04z
									 M83.61,265.05l-1.67-0.48l1.67-0.46V265.05z"/>
							</g>
							
								<use xlink:href="#SVGID_19_"  style="overflow:visible;fill:none;stroke:#008ECA;stroke-width:0.4359;stroke-miterlimit:10;"/>
						</g>
					</g>
				</g>
			</g>
		</g>
		<g class="desc">
			<g class="st23">
				<text transform="matrix(1 0 0 1 25.6535 261.0753)"><tspan x="0" y="0" class="st18 st7 st5">01 Jan</tspan><tspan x="0" y="9" class="st19 st7 st5">Drought</tspan><tspan x="0" y="18" class="st3 st7 st8">(Six states)</tspan><tspan x="0" y="27" class="st3 st7 st8">Somalia </tspan><tspan x="0" y="36" class="st6 st7 st5">*</tspan><tspan x="4.31" y="36" class="st6 st7 st20">72,000</tspan></text>
			</g>
		</g>
	</g>
	<g class="event">
		<g>
			<line class="st15" x1="426.19" y1="345.46" x2="426.19" y2="255.46"/>
			<g>
				<g>
					<defs>
						<path id="SVGID_21_" d="M426.19,252.78c4.41,0,7.96,3.69,7.73,8.16c-0.2,3.91-3.41,7.11-7.31,7.31
						c-4.46,0.23-8.16-3.32-8.16-7.73C418.45,256.24,421.92,252.78,426.19,252.78L426.19,252.78"/>
					</defs>
					<use xlink:href="#SVGID_21_"  style="overflow:visible;fill:#FFFFFF;"/>
					<clipPath id="SVGID_22_">
						<use xlink:href="#SVGID_21_"  style="overflow:visible;"/>
					</clipPath>
					<use xlink:href="#SVGID_21_"  style="overflow:visible;fill:none;stroke:#008ECA;stroke-width:0.4359;stroke-miterlimit:10;"/>
				</g>
				<path class="st34" d="M430.98,260.7c-0.21,0-0.41,0.13-0.5,0.33l-0.82,1.68l-1.01-3.21c-0.08-0.24-0.28-0.41-0.52-0.42
				c-0.24-0.01-0.45,0.14-0.55,0.38l-0.69,1.79l-1.1-7.11c-0.05-0.3-0.31-0.53-0.57-0.51c-0.28,0.01-0.52,0.21-0.55,0.51l-0.97,8.25
				l-0.79-4.43c-0.05-0.26-0.24-0.46-0.49-0.5c-0.24-0.03-0.48,0.1-0.59,0.35l-1.28,2.9h-2v1.24h2.36c0.22,0,0.42-0.14,0.52-0.35
				l0.69-1.56l1.11,6.28c0.05,0.29,0.29,0.5,0.56,0.5c0,0,0.01,0,0.02,0c0.28-0.01,0.51-0.23,0.55-0.53l0.95-8.11l0.8,5.34
				c0.04,0.27,0.25,0.47,0.5,0.5c0.25,0.03,0.49-0.12,0.59-0.38l0.86-2.21l0.96,3.03c0.07,0.23,0.27,0.4,0.5,0.42
				c0.23,0.01,0.44-0.11,0.55-0.33l1.28-2.61h2.45v-1.24H430.98z"/>
			</g>
		</g>
		<g>
			<path class="st35" d="M422.73,349.26c0-1.84,1.49-3.33,3.33-3.33c1.84,0,3.33,1.49,3.33,3.33s-1.49,3.33-3.33,3.33
			C424.22,352.59,422.73,351.1,422.73,349.26L422.73,349.26z"/>
		</g>
		<g class="desc">
			<g class="st23">
				<text transform="matrix(1 0 0 1 437.576 261.0753)"><tspan x="0" y="0" class="st18 st7 st5">17 Jun</tspan><tspan x="0" y="9" class="st19 st7 st5">Earthquake</tspan><tspan x="0" y="18" class="st3 st7 st8">(Sichuan)</tspan><tspan x="0" y="27" class="st3 st7 st8">China</tspan><tspan x="0" y="36" class="st6 st7 st20">80,000</tspan><tspan x="24.03" y="36" class="st6 st7 st5"> </tspan></text>
			</g>
		</g>
	</g>
</g>
	
	<script type='application/ecmascript'>
  <![CDATA[
      
      
      if (!Array.from) {
  Array.from = (function () {
    var toStr = Object.prototype.toString;
    var isCallable = function (fn) {
      return typeof fn === 'function' || toStr.call(fn) === '[object Function]';
    };
    var toInteger = function (value) {
      var number = Number(value);
      if (isNaN(number)) { return 0; }
      if (number === 0 || !isFinite(number)) { return number; }
      return (number > 0 ? 1 : -1) * Math.floor(Math.abs(number));
    };
    var maxSafeInteger = Math.pow(2, 53) - 1;
    var toLength = function (value) {
      var len = toInteger(value);
      return Math.min(Math.max(len, 0), maxSafeInteger);
    };

    // The length property of the from method is 1.
    return function from(arrayLike/*, mapFn, thisArg */) {
      // 1. Let C be the this value.
      var C = this;

      // 2. Let items be ToObject(arrayLike).
      var items = Object(arrayLike);

      // 3. ReturnIfAbrupt(items).
      if (arrayLike == null) {
        throw new TypeError("Array.from requires an array-like object - not null or undefined");
      }

      // 4. If mapfn is undefined, then let mapping be false.
      var mapFn = arguments.length > 1 ? arguments[1] : void undefined;
      var T;
      if (typeof mapFn !== 'undefined') {
        // 5. else
        // 5. a If IsCallable(mapfn) is false, throw a TypeError exception.
        if (!isCallable(mapFn)) {
          throw new TypeError('Array.from: when provided, the second argument must be a function');
        }

        // 5. b. If thisArg was supplied, let T be thisArg; else let T be undefined.
        if (arguments.length > 2) {
          T = arguments[2];
        }
      }

      // 10. Let lenValue be Get(items, "length").
      // 11. Let len be ToLength(lenValue).
      var len = toLength(items.length);

      // 13. If IsConstructor(C) is true, then
      // 13. a. Let A be the result of calling the [[Construct]] internal method of C with an argument list containing the single item len.
      // 14. a. Else, Let A be ArrayCreate(len).
      var A = isCallable(C) ? Object(new C(len)) : new Array(len);

      // 16. Let k be 0.
      var k = 0;
      // 17. Repeat, while k < len (also steps a - h)
      var kValue;
      while (k < len) {
        kValue = items[k];
        if (mapFn) {
          A[k] = typeof T === 'undefined' ? mapFn(kValue, k) : mapFn.call(T, kValue, k);
        } else {
          A[k] = kValue;
        }
        k += 1;
      }
      // 18. Let putStatus be Put(A, "length", len, true).
      A.length = len;
      // 20. Return A.
      return A;
    };
  }());
}



    var events = Array.from(document.getElementsByClassName("event"));
var descs = Array.from(document.getElementsByClassName("desc"));
    
    function highlight(s) {
        events.forEach(function(d) {
            if (d == s) {
                d.style.opacity=1;
s.getElementsByClassName("desc")[0].style.opacity=1;
            } else {
                d.style.opacity=0.1;
d.getElementsByClassName("desc")[0].style.opacity=0;
            }
        })
    }


	
    function reset() {
        events.forEach(function(d) {
            d.style.opacity=1;
           
        });
descs.forEach(function(desc) {
            desc.style.opacity=0;
           
        });

    }
  	function initSVG() {
  	    events.forEach(function(d){
  	        d.addEventListener("mouseover", function() {
            highlight(d);
  	        });
  	        d.addEventListener("mouseout", function() {
            reset();
  	        });
  	    });

  	    
 		
 	};
 	
 	
 	
 	


  ]]>
</script>
</svg>
